<?xml version="1.0" encoding="utf-8"?>
<!-- Generator: Adobe Illustrator 27.1.1, SVG Export Plug-In . SVG Version: 6.00 Build 0)  -->
<svg version="1.1" id="Layer_1" xmlns="http://www.w3.org/2000/svg" xmlns:xlink="http://www.w3.org/1999/xlink" x="0px" y="0px"
	 viewBox="0 0 299.2 237.1" enable-background="new 0 0 299.2 237.1" xml:space="preserve">
<g id="Avataaar">
	<g id="Body" transform="translate(32.000000, 36.000000)">
		<g>
			
				<path id="react-path-3_00000111904657828831454720000008012207714065571235_" fill-rule="evenodd" clip-rule="evenodd" fill="#F9D1C5" d="
				M154.6,118.8v24.8l-7.7,0l0,0c41.6,0,75.2,6.2,75.2,46v9H13.1v-9c0-39.8,33.6-46,75.2-46l0,0l-5.7,0v-23.2
				c-18-8.2-21-20.1-23.2-39.9c-6.1-0.8-10.8-5.8-10.8-11.9v-14c0-5.9,4.5-10.9,10.4-11.8v-6.2l0,0c0-30.9,26.2-56,58.5-56l0,0l0,0
				c32.3,0,58.5,25.1,58.5,56v6.2c6,1,10.4,5.9,10.4,11.8v14c0,6.1-4.7,11.1-10.8,11.9C173.6,100.3,172.5,110.6,154.6,118.8z"/>
		</g>
		<path id="Neck-Shadow" fill-rule="evenodd" clip-rule="evenodd" fill-opacity="0.1" d="M173.6,60.1v23c0,30.9-25.1,56-56,56
			s-56-25.1-56-56v-23v15c0,30.9,25.1,56,56,56s56-25.1,56-56V60.1z"/>
	</g>
	<g id="Clothing_x2F_Hoodie" transform="translate(0.000000, 170.000000)">
		<g id="Hoodie">
			
				<path id="react-path-119_00000178198188135385493300000016021344596200348343_" fill-rule="evenodd" clip-rule="evenodd" fill="#8B5CF6" d="
				M113.7-29.8c-26.7,2-47.4,7.5-47.8,21.6C27.1,2.7,0,28.3,0,58.1l0,0v9h299.2v-9c0-29.8-27.1-55.4-65.8-66.4
				c-0.5-14.1-21.1-19.6-47.8-21.6v19l0,0c0,13.3-16,24-35.9,24l0,0c-19.9,0-35.9-10.7-35.9-24V-29.8z"/>
		</g>
		<g id="Color_x2F_Palette_x2F_Gray-01">
			
				<rect id="_xD83D__xDD8D_Color" x="-22.3" y="-41.9" display="none" fill-rule="evenodd" clip-rule="evenodd" fill="#8B5CF6" width="343.7" height="110"/>
		</g>
		<path id="Straps" display="none" fill-rule="evenodd" clip-rule="evenodd" fill="#F4F4F4" d="M119.6,15.8v48.3h-7V12.3
			C114.8,13.6,117.1,14.8,119.6,15.8z M186.6,12.3v40.3c0,1.9-1.6,3.5-3.5,3.5s-3.5-1.6-3.5-3.5V15.8
			C182.1,14.8,184.4,13.6,186.6,12.3z"/>
		<path id="Shadow" fill-rule="evenodd" clip-rule="evenodd" fill-opacity="0.16" d="M108.6-30.2c-15.1,2.8-25.5,8.5-25.5,19.6
			c0,19.7,33,35.7,66.5,35.7s66.5-16,66.5-35.7c0-11.1-10.4-16.7-25.5-19.6c9.1,3.4,15,9,15,18.4c0,20.4-27.8,36.9-56,36.9
			s-56-16.5-56-36.9C93.6-21.2,99.5-26.8,108.6-30.2z"/>
	</g>
	<g id="Face" transform="translate(76.000000, 82.000000)">
		<g id="Mouth_x2F_Twinkle" transform="translate(2.000000, 52.000000)">
			<path id="Mouth" fill-opacity="0.6" d="M57.6-0.9c0,5.4,6.2,9,14,9s14-3.6,14-9c0-1.1-0.9-2-2-2c-1.3,0-1.9,0.9-2,2
				c-1.2,2.9-4.3,4.7-10,5c-5.7-0.3-8.8-2.1-10-5c-0.1-1.1-0.7-2-2-2C58.5-2.9,57.6-2,57.6-0.9z"/>
		</g>
		<g id="Nose_x2F_Default" transform="translate(28.000000, 40.000000)">
			<path id="Nose" fill-rule="evenodd" clip-rule="evenodd" fill-opacity="0.16" d="M36.6-9.9c0,4.4,4,8,8.9,8l0,0
				c4.9,0,8.9-3.6,8.9-8"/>
		</g>
		<g id="Eyes_x2F_Side-_xD83D__xDE12_" transform="translate(0.000000, 8.000000)">
			<path id="Eye" fill-rule="evenodd" clip-rule="evenodd" fill-opacity="0.6" d="M44.8,3.4c-0.8,1-1.2,2.3-1.2,3.7c0,3.3,2.7,6,6,6
				s6-2.7,6-6c0-0.3,0-0.6-0.1-0.9c0-0.2,0-0.5-0.1-0.7c0-0.1-0.1-0.2-0.1-0.4c-0.3-1-0.9-1.8-1.6-2.5c-2.1-2.2-5.5-3.6-9-3.6
				c-4.8,0-9,2.6-10.8,6.4c-0.5,1.1,0.4,1.9,1.3,1.1c2.4-2,5.8-3.2,9.6-3.2C44.7,3.4,44.8,3.4,44.8,3.4z"/>
			
				<path id="Eye_00000119812921154908869370000001853008906537596803_" fill-rule="evenodd" clip-rule="evenodd" fill-opacity="0.6" d="
				M102.8,3.4c-0.8,1-1.2,2.3-1.2,3.7c0,3.3,2.7,6,6,6s6-2.7,6-6c0-0.3,0-0.6-0.1-0.9c0-0.2,0-0.5-0.1-0.7c0-0.1-0.1-0.2-0.1-0.4
				c-0.3-1-0.9-1.8-1.6-2.5c-2.1-2.2-5.5-3.6-9-3.6c-4.8,0-9,2.6-10.8,6.4c-0.5,1.1,0.4,1.9,1.3,1.1c2.4-2,5.8-3.2,9.6-3.2
				C102.7,3.4,102.8,3.4,102.8,3.4z"/>
		</g>
		<g id="Eyebrow_x2F_Natural_x2F_Default-Natural">
			<path id="Eyebrow" fill-rule="evenodd" clip-rule="evenodd" fill-opacity="0.6" d="M44.1-10.8c-5.8,0.3-15.2,4.5-15,10.3
				c0,0.2,0.3,0.3,0.4,0.1c2.8-3,22.3-5.9,29.2-4.4c0.6,0.1,1.1-0.5,0.7-0.9C56.1-9.4,49.3-11,44.1-10.8"/>
			
				<path id="Eyebrow_00000005253551677941515340000010607011989824801434_" fill-rule="evenodd" clip-rule="evenodd" fill-opacity="0.6" d="
				M104.1-10.8c5.8,0.3,15.2,4.5,15,10.3c0,0.2-0.3,0.3-0.4,0.1c-2.8-3-22.3-5.9-29.2-4.4c-0.6,0.1-1.1-0.5-0.7-0.9
				C92.1-9.4,98.9-11,104.1-10.8"/>
		</g>
	</g>
	<g id="Top">
		<g id="Mask_00000121263668247458620920000013434183198347850914_">
		</g>
		<g id="Top_x2F_Short-Hair_x2F_Short-Flat">
			<g transform="translate(-1.000000, 0.000000)">
				<g id="Facial-Hair_x2F_Beard-Light" transform="translate(49.000000, 72.000000)">
					<g id="Lite-Beard">
						
							<path id="react-path-52_00000130632576194729184510000008948835780375368084_" fill-rule="evenodd" clip-rule="evenodd" fill="#686868" d="
							M119,81.3c-2.5,2.3-5.2,3.3-8.6,2.6c-0.6-0.1-3-4.5-8.9-4.5s-8.3,4.4-8.9,4.5c-3.4,0.7-6.1-0.3-8.6-2.6
							C79.3,77,75.3,71,77.7,64.6c1.2-3.4,3.2-7.1,6.9-8.2c3.9-1.2,9.3,0,13.3-0.8c1.3-0.3,2.7-0.7,3.6-1.5c0.9,0.8,2.3,1.2,3.6,1.5
							c3.9,0.8,9.4-0.4,13.3,0.8c3.6,1.1,5.6,4.8,6.9,8.2C127.7,71,123.8,77,119,81.3 M157.7,9.1c-3.4,8.4-2.1,18.9-2.7,27.7
							c-0.5,7.2-2,17.9-8.4,22.5c-3.3,2.4-9.2,6.3-13.4,5.2c-2.9-0.8-3.2-9.2-7.1-12.3c-4.4-3.6-9.8-5.1-15.3-4.9
							c-2.4,0.1-7.2,0.1-9.1,1.9c-2-1.8-6.8-1.8-9.1-1.9c-5.5-0.2-10.9,1.3-15.3,4.9c-3.8,3.1-4.2,11.5-7.1,12.3
							c-4.3,1.1-10.2-2.9-13.4-5.2c-6.4-4.6-7.9-15.4-8.4-22.5c-0.8-8.8,0.5-19.3-2.9-27.7c-1.7,0-0.6,16.1-0.6,16.1v20.4
							c0,15.3,9.6,38.2,30.8,46.9c5.2,2.1,16.9,5.6,25.9,5.6s20.7-3.1,25.9-5.3c21.2-8.7,30.7-32,30.8-47.2V25.2
							C158.2,25.2,159.3,9.1,157.7,9.1"/>
					</g>
				</g>
				<g id="Short-Hair">
					
						<radialGradient id="react-path-38_00000182516650735410370430000007183543959832533691_" cx="152.0824" cy="551.104" r="71.9907" gradientTransform="matrix(1 0 0 1 -2 -510)" gradientUnits="userSpaceOnUse">
						<stop  offset="0.5471" style="stop-color:#000000"/>
						<stop  offset="0.5497" style="stop-color:#020202"/>
						<stop  offset="0.6496" style="stop-color:#4E4E4E"/>
						<stop  offset="0.7431" style="stop-color:#8D8D8D"/>
						<stop  offset="0.8275" style="stop-color:#BEBEBE"/>
						<stop  offset="0.9012" style="stop-color:#E1E1E1"/>
						<stop  offset="0.9611" style="stop-color:#F7F7F7"/>
						<stop  offset="1" style="stop-color:#FFFFFF"/>
					</radialGradient>
					
						<path id="react-path-38_00000177441972831364942130000006795078034635257533_" fill="url(#react-path-38_00000182516650735410370430000007183543959832533691_)" d="
						M197.7,23c-2.8-2.8-6-5.2-9.1-7.6c-0.7-0.5-1.4-1-2.1-1.6c-0.2-0.1-1.7-1.2-1.9-1.7c-0.5-1-0.2-0.2-0.1-1.4
						c0.1-1.5,3.1-5.7,0.9-6.7c-1-0.4-2.8,0.7-3.8,1.1c-1.9,0.7-3.8,1.4-5.7,1.9c0.9-1.9,2.7-5.6-0.6-4.6c-2.6,0.8-5,2.8-7.6,3.7
						c0.9-1.4,4.3-5.8,1.2-6.1c-1-0.1-3.8,1.7-4.9,2.1c-3.1,1.2-6.3,1.9-9.6,2.5c-11.2,2-24.3,1.4-34.7,6.5
						c-8,3.9-15.9,10-20.5,17.8c-4.4,7.5-6.1,15.7-7,24.3c-0.7,6.3-0.7,12.8-0.4,19.1c0.1,2.1,0.3,11.6,3.3,8.7
						c1.5-1.4,1.5-7.3,1.9-9.2c0.8-3.9,1.5-7.8,2.7-11.6c2.2-6.7,4.8-13.8,10.3-18.4c3.5-3,6-6.9,9.4-9.9c1.5-1.3,0.4-1.2,2.8-1
						c1.6,0.1,3.3,0.2,4.9,0.2c3.8,0.1,7.6,0.1,11.4,0.1c7.6,0,15.3,0.1,22.9-0.3c3.4-0.2,6.8-0.3,10.2-0.6c1.9-0.2,5.2-1.4,6.8-0.5
						c1.4,0.8,2.9,3.6,3.9,4.7c2.4,2.7,5.3,4.7,8.1,6.9c5.9,4.6,8.9,10.3,10.7,17.5c1.8,7.1,1.3,13.7,3.5,20.8
						c0.4,1.2,1.4,3.4,2.7,1.5c0.2-0.4,0.2-2.3,0.2-3.4c0-4.5,1.1-7.9,1.1-12.5C208.5,51.6,208.1,33.6,197.7,23z"/>
				</g>
			</g>
		</g>
	</g>
</g>
</svg>
