<?xml version="1.0" encoding="UTF-8" standalone="no"?>
<!-- Generator: Adobe Illustrator 27.2.0, SVG Export Plug-In . SVG Version: 6.00 Build 0)  -->

<svg
   version="1.1"
   id="Layer_1"
   x="0px"
   y="0px"
   viewBox="0 0 600 600"
   xml:space="preserve"
   sodipodi:docname="speaking.svg"
   inkscape:version="1.2.1 (9c6d41e4, 2022-07-14)"
   xmlns:inkscape="http://www.inkscape.org/namespaces/inkscape"
   xmlns:sodipodi="http://sodipodi.sourceforge.net/DTD/sodipodi-0.dtd"
   xmlns="http://www.w3.org/2000/svg"
   xmlns:svg="http://www.w3.org/2000/svg"><defs
   id="defs8123" /><sodipodi:namedview
   id="namedview8121"
   pagecolor="#ffffff"
   bordercolor="#000000"
   borderopacity="0.25"
   inkscape:showpageshadow="2"
   inkscape:pageopacity="0.0"
   inkscape:pagecheckerboard="0"
   inkscape:deskcolor="#d1d1d1"
   showgrid="false"
   inkscape:zoom="0.39333333"
   inkscape:cx="300"
   inkscape:cy="300"
   inkscape:window-width="1309"
   inkscape:window-height="456"
   inkscape:window-x="0"
   inkscape:window-y="25"
   inkscape:window-maximized="0"
   inkscape:current-layer="Layer_1" />
<g
   id="g8118"
   style="fill:#8b5cf6;fill-opacity:1">
	<path
   d="M403.3,205.9c-6.6-1.3-13.2-2.4-19.6-3.8c-7.3-1.5-14.6-2.8-21.6-5.2c-5.8-2-9.6-6.8-11.7-12.7c-2.9-7.8-1.9-15.7-0.2-23.6   c1.9-8.7,5-16.9,8.5-25.1c1.9-4.5,4.5-8.5,7.4-12.3c1.1-1.4,3-2.2,4.4-3.5c2.9-2.8,6.4-2,9.6-1.6c2.7,0.3,5.7,1.5,7.8,3.2   c5.8,4.8,7.3,8,5.8,15.3c-0.8,4-1.8,7.9-2.9,11.8c-1.5,4.9-3.3,9.7-5,14.5c-0.9,2.6-0.6,2.8,1.9,3.3c8.1,1.4,16.2,3.1,24.4,4.1   c5.7,0.7,11.6,0.8,17.4,0.8c1.8,0,3.7-1.1,5.4-1.9c4.6-2.1,9.1-4.3,13.7-6.3c0.7-0.3,1.8,0.1,2.6,0.2c0.5,0.1,1,0.2,1.6,0.2   c5.9,0,11.8,0.3,17.7-0.1c2.5-0.2,4.9-0.4,7.1,0.7c6.1,3.2,12.2,6.3,18.1,9.9c4.7,2.9,9.2,6.3,13.6,9.7c4,3.2,7.9,6.6,11.6,10.2   c3.2,3.1,6.2,6.5,8.9,10c4.9,6.3,9.2,13,12.4,20.3c5.4,12.4,7.9,25.4,7.3,38.9c-0.4,10.7-2.4,21.1-5.7,31.3   c-3.1,9.7-7.1,18.9-11.7,27.9c-3.4,6.6-8.8,10-16.2,9.9c-3.9,0-7.4-1.5-10.5-4c-0.4-0.3-0.7-0.6-1.1-0.9c-0.1-0.1-0.2,0-0.6-0.1   c-0.1,0.8-0.2,1.7-0.2,2.5c0,55.8,0,111.5,0,167.3c0,4.5-0.8,8.9-3.3,12.5c-1.6,2.3-3.8,4.4-6,6.2c-5.4,4.2-11.5,5.1-17.8,2.7   c-7.3-2.8-12.2-8.1-13.7-16c-0.4-1.9-0.5-3.9-0.5-5.8c0-48.6,0-97.2,0-145.8c0-2.3-0.2-2.7-1.9-2.4c-0.4,0.1-0.9,0.6-1.1,1   c-0.2,0.5-0.1,1.2-0.1,1.8c0,48.3,0,96.6,0,144.9c0,9-3.1,16.1-11.2,20.9c-6,3.5-12.1,3.8-18,0.8c-7.9-4.1-12.2-10.8-12.2-20   c0-58,0-115.9,0-173.9c0-1.6-0.3-2.2-2.1-2.4c-6.2-0.5-12.3-1.3-18.4-2c-3.3-0.4-5.2-3.2-4.9-6.5c0.8-8.5,1.9-16.9,2.8-25.3   c0.8-7.5,1.4-15,2.2-22.5c0.9-8.4,1.9-16.9,2.8-25.3c0.8-7.4,1.5-14.8,2.2-22.2c0.4-3.5,0.7-7,1.1-10.5   C403.3,206.8,403.3,206.4,403.3,205.9z M508.4,236.1c-0.1,0.1-0.3,0.1-0.4,0.2c0,17.5,0,34.9,0,52.4c0.2,0,0.3,0,0.5,0.1   c3.7-9.9,6.1-20,5.7-30.7C513.9,250.3,512.3,242.9,508.4,236.1z"
   id="path8096"
   style="fill:#8b5cf6;fill-opacity:1" />
	<path
   d="M257.6,417.9c17.4,12,30.1,26.8,32.7,48.4c0.2-0.1,0.4-0.1,0.6-0.2c0.4-2.2,0.8-4.4,1.3-6.5c1.3-6,3.6-11.7,6.8-17   c4.9-8.1,11.2-14.9,18.9-20.4c4.7-3.4,9.6-6.6,14.6-9.6c2.3-1.4,5-2.4,7.6-3.4c0.5-0.2,1.5,0.1,1.9,0.5c1.8,1.9,3.6,3.9,5.3,5.9   c0.8,0.9,1.5,1,2.4,0c1.7-1.9,3.5-3.7,5.1-5.6c0.7-0.8,1.5-1.1,2.5-0.6c2.4,1.1,4.8,2.1,7.1,3.4c3.7,2.1,7.4,4.1,10.8,6.6   c4.5,3.4,9,7,13,11c5.4,5.4,9.9,11.7,12.9,18.8c2.6,6.2,4.4,12.6,4.6,19.4c0.1,2.7,0,5.4,0,8.2c-7.6,0-15.1,0-22.8,0   c0-0.6,0-1.2,0-1.8c0.4-5.5-0.6-10.9-2.6-16c-0.2-0.6-0.8-1.1-1.2-1.6c-0.2,0.1-0.4,0.2-0.6,0.3c0,1.3,0,2.6,0,3.8   c0,4.7,0,9.4,0,14c0,1.1-0.3,1.5-1.4,1.5c-9,0-18,0-27.1,0c-0.3,0-0.5-0.1-1.1-0.1c1.2-1.6,2.2-3.1,3.2-4.5c1-1.5,2.1-2.9,3-4.5   c0.3-0.5,0.4-1.3,0.3-1.9c-1-6.8-2-13.6-2.9-20.4c-1.2-8.2-2.3-16.5-3.5-24.7c-0.1-0.5-0.4-1-0.6-1.5c-0.2,0-0.4,0-0.5,0   c-0.3,1.8-0.6,3.5-0.9,5.3c-1.2,8.1-2.4,16.2-3.5,24.4c-0.8,5.7-1.7,11.5-2.4,17.2c-0.1,0.6,0.2,1.3,0.6,1.8c1.6,2.4,3.3,4.8,5,7.2   c0.3,0.4,0.6,0.9,1,1.6c-0.8,0-1.2,0.1-1.7,0.1c-8.6,0-17.3,0-25.9,0c-1.6,0-2-0.6-2-2.1c0.1-5.2,0-10.5,0-15.7c0-0.6,0-1.2,0-1.8   c-0.2-0.1-0.4-0.2-0.6-0.2c-0.4,0.7-0.9,1.3-1.1,2c-2.1,5.1-2.8,10.5-2.4,16.1c0,0.5,0,1,0,1.7c-0.7,0-1.3,0-1.9,0   c-6.2,0-12.4,0-18.6,0c-8,0-16,0-24,0c-1.6,0-1.9-0.5-1.8-1.9c0.4-5.6-0.5-11-2.7-16.2c-0.3-0.6-0.6-1.2-1-1.8   c-0.2,0-0.3,0.1-0.5,0.1c-0.1,0.6-0.2,1.2-0.2,1.9c0,5.4,0,10.8,0,16.2c0,1.2-0.4,1.7-1.6,1.6c-19,0-38,0-57,0   c-1.3,0-1.8-0.3-1.7-1.7c0.1-5.5,0-11.1,0-16.6c0-0.6-0.1-1.2-0.1-1.7c-0.2,0-0.3-0.1-0.5-0.1c-0.4,0.7-1,1.4-1.3,2.2   c-1.9,5-2.9,10.2-2.6,15.5c0.2,2.7,0.3,2.4-2.4,2.4c-12.6,0-25.3,0-37.9,0c-0.7,0-1.3,0-2.3,0c0.4-7-0.3-13.7-3.5-19.8   c-0.3,0-0.5,0.1-0.8,0.1c0,6.5,0,13,0,19.6c-0.8,0-1.3,0.1-1.9,0.1c-18.8,0-37.7,0-56.5,0c-1.6,0-2.1-0.4-2.1-2.1   c0.1-5.4,0-10.7,0-16.1c0-0.6-0.1-1.2-0.1-1.8c-0.2-0.1-0.4-0.1-0.5-0.2c-0.4,0.8-0.9,1.6-1.3,2.5c-1.9,5-2.8,10.2-2.3,15.6   c0.1,1.6-0.3,2-1.9,2c-6.4-0.1-12.9-0.1-19.3,0c-1.3,0-1.8-0.3-1.8-1.7c-0.4-12.1,2.4-23.3,8.8-33.6c4.8-7.6,10.8-14.1,18.1-19.3   c4.7-3.4,9.6-6.6,14.6-9.6c2.3-1.4,4.9-2.3,7.4-3.5c0.9-0.4,1.7-0.2,2.4,0.6c1.5,1.7,2.9,3.4,4.5,5c1.7,1.9,1.8,1.9,3.6,0   c1.6-1.6,3-3.4,4.6-4.9c0.5-0.5,1.7-0.9,2.3-0.6c2.5,1,4.9,2.1,7.2,3.4c3.8,2.2,7.7,4.3,11.2,6.9c4.4,3.3,8.7,6.8,12.6,10.7   c5.2,5.2,9.5,11.2,12.6,18c1.1,2.4,1.9,4.9,2.8,7.4c0.2,0.4,0.3,0.8,0.7,1.3c2.9-8.2,6.7-15.7,12.3-22.4c5.5-6.7,12.2-12,19.4-17.2   c0.1,2.1,0,3.9,0.3,5.6c1.5,7.2,5.9,12.2,12.6,14.9c10,4,19.6,3.4,28.4-3.1c4.8-3.6,7.6-8.5,7.5-14.7   C257.6,419.6,257.6,419,257.6,417.9z"
   id="path8098"
   style="fill:#8b5cf6;fill-opacity:1" />
	<path
   d="M506.6,113.9c-0.3,10.5-3.8,20.9-11.4,29.8c-3.5,4.1-7.7,7.1-12.2,10c-6.5,4.2-13.7,5.7-21.1,5.9   c-7.1,0.2-14.1-1.1-20.3-4.7c-4.4-2.5-8.7-5.5-12.2-9.1c-6.8-6.9-11-15.3-12.6-24.9c-2.1-13,0.6-25,8.2-35.9   c2.6-3.7,5.8-6.7,9.2-9.6c8.8-7.3,19.1-9.9,30.3-9.2c7.2,0.4,14.1,2.5,20.2,6.5c9.4,6.2,16,14.5,19.5,25.3   C505.8,102.9,506.6,107.8,506.6,113.9z"
   id="path8100"
   style="fill:#8b5cf6;fill-opacity:1" />
	<path
   d="M291.7,306.4c9.1,0.7,16.5,3.4,22.1,9.4c7.4,7.9,10.6,17.3,8.6,28.2c-1.4,7.8-5.3,14.2-11.4,19.3   c-5.2,4.3-11.1,6.3-17.6,6.5c-6.3,0.2-12.3-1.3-17.4-5c-10.9-8-15.5-18.8-13.4-32.2c0.8-5.4,3.2-10.2,6.7-14.6   c4.3-5.4,9.8-8.6,16.3-10.3C287.8,307.2,290.1,306.8,291.7,306.4z"
   id="path8102"
   style="fill:#8b5cf6;fill-opacity:1" />
	<path
   d="M146.6,337.4c0.2-6.8,2.6-13.5,7.3-19.5c4.2-5.2,9.6-8.2,15.9-10.2c4.1-1.3,8.2-1.6,12.2-0.6c6.1,1.4,11.9,3.8,16.3,8.6   c7.5,8.2,10.7,17.8,8.5,28.9c-1.5,7.8-5.6,14-11.7,19.1c-9.5,7.9-24.7,8.2-34.6,1.2C151.5,358.3,146.7,349.4,146.6,337.4z"
   id="path8104"
   style="fill:#8b5cf6;fill-opacity:1" />
	<path
   d="M348.3,406.9c-4.7,0.1-9.3-0.9-13.3-3.2c-8.2-4.8-13.6-11.8-15.5-21.3c-1.3-6.8-0.5-13.3,2.4-19.4   c5.6-11.6,16.9-18.2,30-16.7c5.6,0.6,10.8,2.7,15,6.4c8.7,7.8,12.4,17.5,10.4,29.1c-1.4,8.4-5.8,15-12.8,20.1   C359.6,405.4,354.2,406.8,348.3,406.9z"
   id="path8106"
   style="fill:#8b5cf6;fill-opacity:1" />
	<path
   d="M121.2,406.9c-5.2,0.1-10-1.1-14.3-3.8c-8-5.1-13.2-12.2-14.7-21.8c-1.5-9.7,1.1-18.2,7.6-25.8   c9.7-11.5,28.5-13.1,40.5-2.5c5.5,4.8,8.9,11,10,18.3c1.2,7.3-0.2,14.1-3.8,20.6c-2.3,4-5.5,7-9.1,9.8   C132.6,405.5,127.1,406.8,121.2,406.9z"
   id="path8108"
   style="fill:#8b5cf6;fill-opacity:1" />
	<path
   d="M262.9,374.9c0,6.5-1.3,11.7-4.1,16.6c-2.4,4.3-5.7,7.6-9.8,10.3c-8.6,5.6-17.7,5.8-27,2.1c-4.9-2-9-5.3-12-9.7   c-5-7.4-6.8-15.5-5.1-24.3c1-5.5,3.6-10.2,7.2-14.5c9-10.8,26.9-12.8,38.4-4.2C258.7,357.3,262.7,365.6,262.9,374.9z"
   id="path8110"
   style="fill:#8b5cf6;fill-opacity:1" />
	<path
   d="M213.8,408c-9.8,7.9-19.3,15.7-29.1,23.6c-2.4-16.6-4.8-32.9-7.2-49.3c-0.3,0-0.5,0-0.8,0c-2.3,15.9-4.6,31.8-7,48.3   c-8.3-9.1-17.6-16.1-27.9-22.3c0.8-0.6,1.4-1.1,2.1-1.7c8.5-7.2,13.2-16.3,13.7-27.5c0.1-1.3,0.5-2.2,1.7-2.8   c3-1.6,5.9-3.8,9.4-4.4c0.6-0.1,1.4,0.1,1.8,0.5c1.9,1.9,3.7,4,5.4,6c0.9,1,1.6,1.1,2.5,0.1c1.6-1.7,3.3-3.4,4.8-5.2   c1.1-1.2,2.2-1.9,3.8-1.1c3.5,1.8,7.1,3.6,10.5,5.5c0.4,0.2,0.6,1,0.7,1.5c0.5,6.8,2.4,13.3,6.3,19   C206.9,402.1,209.7,405.6,213.8,408z"
   id="path8112"
   style="fill:#8b5cf6;fill-opacity:1" />
	<path
   d="M284,372.1c0,20.3,0,40.4,0,60.9c-8.3-10.7-19.1-17.8-30.4-24.6c0.7-0.6,1.3-1.1,1.9-1.6c8.1-6.6,12.6-15.2,13.7-25.6   c0.1-1.1,0.4-1.9,1.4-2.4c3.7-2,7.4-4,11.1-6C282.3,372.5,283.1,372.4,284,372.1z"
   id="path8114"
   style="fill:#8b5cf6;fill-opacity:1" />
	<path
   d="M300.1,372.1c3.5,0.3,6.1,2.4,9,3.8c0.3,0.2,0.6,0.5,1,0.6c3.1,0.8,3.4,3.2,3.6,5.8c0.6,6.7,3,12.8,7.3,18   c2.4,2.9,5.1,5.4,7.8,8.3c-10.3,5.9-20.9,12.1-28.4,22.2c-0.1-0.1-0.2-0.1-0.4-0.2C300.1,411.2,300.1,391.7,300.1,372.1z"
   id="path8116"
   style="fill:#8b5cf6;fill-opacity:1" />
</g>
</svg>
