<svg
      version="1.1"
      xmlns="http://www.w3.org/2000/svg"
      viewBox="0 0 406 306"
      xmlSpace="preserve"
    >
      <g id="svg186">
        <g id="_577_team_work_flatline">
          <path
            id="path9"
            fill="#FFFFFF"
            d="M137.8,171l3.4,3l12.2-14.7l3.9,4.1c0,0-10.2,21.2-17.3,21.7c-4,0.5-7.8-1.8-9.4-5.5L137.8,171
			z"
          />
          <path
            id="path11"
            fill="#666666"
            d="M139.2,185.7c-3.9,0.1-7.5-2.2-9.1-5.8c-0.1-0.2,0-0.4,0.1-0.5l7.1-8.7
			c0.1-0.1,0.2-0.2,0.4-0.2c0.1,0,0.3,0,0.4,0.1l3,2.7l11.9-14.2c0.1-0.1,0.2-0.2,0.4-0.2c0.1,0,0.3,0,0.4,0.2l3.9,4.1
			c0.1,0.2,0.2,0.4,0.1,0.6c-0.4,0.9-10.3,21.5-17.8,22L139.2,185.7z M131.2,179.8c1.6,3.3,5.1,5.3,8.8,4.9
			c6.4-0.4,15.5-18.5,16.8-21.1l-3.3-3.4l-11.9,14.2c-0.1,0.1-0.2,0.2-0.4,0.2c-0.1,0-0.3,0-0.4-0.1l-3-2.7L131.2,179.8z"
          />
          <path
            id="path13"
            fill="#FFFFFF"
            d="M113.1,258.5c0,0-1.9,5.5-1.8,6.9c0.2,1.3,6.7,8.3,8.6,8.3c1.8,0,7.1-0.5,7.4-1.6
			s-4.6-2.1-5.4-2.6c-0.7-0.4-0.8-4.1-0.8-4.1L113.1,258.5z"
          />
          <path
            id="path15"
            fill="#666666"
            d="M119.9,274.1c-2.2,0-8.9-7.2-9.1-8.7c-0.2-1.5,1.6-6.5,1.8-7.1c0.1-0.2,0.2-0.3,0.3-0.3
			c0.2-0.1,0.3,0,0.5,0.1l8.1,6.9c0.1,0.1,0.2,0.2,0.2,0.4c-0.1,1.2,0.1,2.5,0.5,3.6c0.4,0.2,0.9,0.3,1.3,0.4c2.1,0.6,3.8,1.2,4.2,2
			c0.1,0.2,0.2,0.5,0.1,0.7C127.2,274,120,274.1,119.9,274.1L119.9,274.1z M113.3,259.3c-0.7,2.1-1.6,5.1-1.5,5.9
			c0.2,1.7,6.9,7.8,8.1,7.8l0,0c2.7,0,6.7-0.6,6.9-1.3c-0.2-0.4-2.7-1.2-3.6-1.4c-0.5-0.1-1-0.3-1.5-0.5c-0.8-0.5-1-2.8-1-4.3
			L113.3,259.3z"
          />
          <path
            id="path17"
            fill="#666666"
            d="M125,202c0,0,10.2,29.8,8.8,34.3c-1.5,4.6-12.7,29-12.7,29l-8.1-6.9c0,0,5.7-21.8,5.2-25.4
			c-0.5-3.5-8.6-21-8.6-21s-10.1,24.1-16.5,24.2c-6.3,0.2-27.7,2.3-27.7,2.3l2.6-9.3c0,0,21.3-4.8,22.9-7.1
			c1.5-2.3,6.7-27.6,6.7-27.6l26.3,5.4"
          />
          <path
            id="path19"
            fill="#666666"
            d="M121.2,265.8c-0.1,0-0.2,0-0.3-0.1l-8.1-6.9c-0.2-0.1-0.2-0.3-0.2-0.5
			c2-7.5,5.6-22.5,5.2-25.2c-0.4-2.9-6.4-16.1-8.1-19.9c-0.9,2-2.9,6.5-5.4,11.1c-4.5,8.2-8.2,12.4-11.1,12.4
			c-6.3,0.1-27.4,2.3-27.7,2.3c-0.2,0-0.3,0-0.4-0.2c-0.1-0.1-0.1-0.3-0.1-0.5l2.5-9.3c0-0.2,0.2-0.3,0.4-0.4
			c8.1-1.8,21.5-5.3,22.6-6.9c1.2-1.8,5.2-20.5,6.6-27.5c0-0.1,0.1-0.3,0.2-0.3c0.1-0.1,0.3-0.1,0.4-0.1l26.3,5.4
			c0.3,0.1,0.5,0.3,0.4,0.6c-0.1,0.3-0.3,0.5-0.6,0.4l-25.8-5.3c-0.9,4.2-5.2,25.1-6.7,27.3c-1.5,2.2-19.6,6.5-22.9,7.2l-2.3,8.3
			c3.8-0.4,21.4-2,27-2.2c4.9-0.1,13.2-17.3,16-23.9c0.1-0.2,0.3-0.3,0.5-0.3l0,0c0.2,0,0.4,0.1,0.5,0.3c0.3,0.7,8.2,17.7,8.7,21.2
			c0.5,3.4-4.4,22.5-5.1,25.2l7.3,6.2c1.7-3.8,11.1-24.2,12.4-28.3c1.2-3.6-5.9-25.8-8.8-34c-0.1-0.3,0.1-0.6,0.3-0.7
			c0.3-0.1,0.6,0.1,0.7,0.3c0.4,1.2,10.3,30,8.8,34.7s-12.2,28-12.7,29c-0.1,0.1-0.2,0.3-0.3,0.3H121.2z"
          />
          <path
            id="path21"
            fill="#E97E4F"
            d="M141.2,174c-1.2,2.8-6.9,9-6.6,9.3c-1.1-1.3-2.7-2.3-3.9-3.6c-0.8-0.8-4.3-3.8-4.3-4.9
			c-0.2,9.1-0.5,18.1-1.3,27.2c-8.1,4-29.6-0.5-29.9-1.5c-1-3.5,0.9-9.7,1.3-13.2c0.7-6.8,1.1-13.6,2.1-20.4
			c0.2-1.9,0.8-3.8,1.7-5.5c2.1-3.3,7.2-4.5,10.8-3c5.4,2.2,13-1.1,17.9,1.8c1.2,0.8,2.3,1.8,3.1,2.9l5.1,5.7c0.9,1,1.7,2,2.6,2.9
			c0.4,0.4,1.3,0.7,1.5,1.3C141.4,173.3,141.4,173.7,141.2,174z"
          />
          <path
            id="path23"
            fill="#FFFFFF"
            d="M108,140.8c0.3-0.2,0.7-0.3,1-0.4c1.3-0.3,1.4,0,2.4-1c1.4-1.5,3.3-2.5,5.3-2.8
			c3.9-0.8,7,0.9,6.6,5.3c-0.2,1.8-0.8,3.5-1.7,5c-1.8,3.3-4.6,6.5-8.3,7.3c-1.1,0.2-3.2,0.4-4.2-0.4c-2.7-2.4-3.9-5.9-3.3-9.4
			c0.1-0.7,0.4-1.4,0.8-2.1C106.9,141.6,107.4,141.1,108,140.8z"
          />
          <path
            id="path25"
            fill="#666666"
            d="M111.3,154.7c-0.9,0.1-1.8-0.2-2.6-0.7c-2.8-2.5-4.1-6.2-3.5-9.9c0.1-0.8,0.4-1.6,0.8-2.3
			c0.4-0.6,1-1.1,1.6-1.5c0.3-0.2,0.7-0.3,1.1-0.4c0.4-0.1,0.6-0.1,0.9-0.2c0.5-0.1,0.6-0.1,1.2-0.7c1.5-1.6,3.5-2.6,5.6-3
			c2.4-0.5,4.4-0.1,5.7,1.1c1.2,1.2,1.8,3,1.6,4.7c-0.2,1.8-0.8,3.6-1.8,5.2c-1.6,3-4.4,6.7-8.7,7.5
			C112.6,154.7,112,154.7,111.3,154.7z M118.4,136.9c-0.6,0-1.1,0.1-1.7,0.2c-1.9,0.4-3.7,1.3-5.1,2.7c-0.4,0.6-1.1,1-1.8,1
			c-0.2,0-0.5,0.1-0.8,0.2c-0.3,0.1-0.6,0.2-0.9,0.3l0,0c-0.5,0.3-0.9,0.7-1.3,1.1c-0.4,0.6-0.6,1.2-0.7,1.9c-0.6,3.3,0.6,6.7,3.1,9
			c0.6,0.5,2.4,0.6,3.7,0.3c3.9-0.8,6.5-4.3,8-7c0.9-1.5,1.4-3.1,1.6-4.8c0.2-1.4-0.2-2.9-1.2-3.9
			C120.6,137.2,119.5,136.8,118.4,136.9z M108,140.8L108,140.8z"
          />
          <path
            id="path27"
            fill="#FFFFFF"
            d="M120.3,156.5l0.7,5.9c-0.7,2.1-2.8,3.3-5,2.9c-4-0.5-4.8-3.2-4.8-3.2l-1.2-11
			c0,0,2.7-1.9,1.1-8c3.3,1,6.9,1.1,10.3,0.2c0,0,2,6.7,2,9.8C123.5,156.3,120.3,156.5,120.3,156.5z"
          />
          <path
            id="path29"
            fill="#666666"
            d="M116.8,166c-0.3,0-0.5,0-0.8,0c-4.3-0.5-5.2-3.5-5.2-3.6l-1.2-11.1c0-0.2,0.1-0.4,0.2-0.5
			c0,0,2.4-1.8,0.9-7.5c0-0.2,0-0.4,0.2-0.5c0.1-0.1,0.3-0.2,0.5-0.1c3.2,1,6.7,1,10,0.2c0.3-0.1,0.5,0.1,0.6,0.3
			c0.1,0.3,2,6.8,2,9.9c0,1.8-1.3,3.4-3.1,3.7l0.7,5.5c0,0.1,0,0.1,0,0.2C120.9,164.6,119,166,116.8,166z M110.6,151.4l1.1,10.7
			c0,0,0.8,2.3,4.4,2.8c1.9,0.4,3.7-0.7,4.4-2.5l-0.7-5.8c0-0.2,0-0.3,0.1-0.4c0.1-0.1,0.2-0.1,0.4-0.2c1.5-0.1,2.6-1.4,2.7-2.8
			c0-2.5-1.4-7.6-1.9-9.1c-3,0.7-6.2,0.6-9.2-0.1C112.9,148.7,111.2,150.8,110.6,151.4z"
          />
          <path
            id="path31"
            fill="#FFFFFF"
            d="M112.3,150.8c-0.2-0.5-0.6-1-1-1.3c-0.4-0.3-0.9-0.4-1.4-0.5c-0.3-0.1-0.6-0.1-0.8-0.1
			c-0.2,0-0.4,0.1-0.5,0.3c-0.4,0.3-0.7,0.6-0.8,1.1c-0.1,0.4,0,0.8,0.1,1.1c0.1,0.4,0.2,0.8,0.4,1.1c0.4,0.7,1.1,1.2,1.9,1.5
			c0.8,0.2,1.7,0.1,2.4-0.3"
          />
          <path
            id="path33"
            fill="#666666"
            d="M110.9,154.6c-0.3,0-0.6,0-0.9-0.1c-0.9-0.2-1.7-0.9-2.2-1.7c-0.2-0.4-0.4-0.8-0.5-1.3
			c-0.1-0.4-0.2-0.9-0.1-1.4c0.2-0.6,0.5-1.1,1-1.4c0.2-0.2,0.5-0.3,0.7-0.3c0.3-0.1,0.7-0.1,1,0c0.6,0.1,1.1,0.3,1.6,0.6
			c0.6,0.4,1,0.9,1.2,1.5c0.1,0.3,0,0.6-0.3,0.7c-0.3,0.1-0.6,0-0.7-0.3c0,0,0,0,0,0c-0.2-0.4-0.4-0.8-0.8-1
			c-0.4-0.2-0.8-0.4-1.3-0.5c-0.2-0.1-0.4-0.1-0.6-0.1c-0.1,0-0.2,0.1-0.4,0.2c-0.3,0.2-0.5,0.5-0.6,0.8c0,0.3,0,0.6,0.1,0.9
			c0.1,0.4,0.2,0.7,0.4,1c0.3,0.6,0.9,1,1.6,1.2c0.7,0.2,1.4,0.1,2-0.3c0.2-0.1,0.5-0.1,0.7,0.2c0,0,0,0,0,0
			c0.1,0.2,0.1,0.5-0.2,0.7C112.1,154.4,111.5,154.6,110.9,154.6z"
          />
          <path
            id="path35"
            fill="#FFFFFF"
            d="M119,147.7c0,0,2.5,2.7,2,3.3c-0.5,0.6-1.8,0.5-1.8,0.5"
          />
          <path
            id="path37"
            fill="#666666"
            d="M119.6,152h-0.4c-0.3,0-0.5-0.3-0.5-0.6s0.3-0.5,0.6-0.5c0.4,0.1,0.9,0,1.3-0.2
			c-0.5-1-1.2-1.9-2-2.8c-0.2-0.2-0.2-0.5,0-0.7c0.2-0.2,0.5-0.2,0.7,0c0,0,0,0,0,0c2.8,3,2.3,3.7,2.1,3.9
			C120.9,151.8,120.3,152.1,119.6,152z M120.6,150.9L120.6,150.9z"
          />

          <ellipse
            id="ellipse39"
            transform="matrix(0.9979 -6.435814e-02 6.435814e-02 0.9979 -9.2366 7.8485)"
            fill="#666666"
            cx="117.2"
            cy="147.3"
            rx="0.5"
            ry="0.7"
          />

          <ellipse
            id="ellipse41"
            transform="matrix(0.9808 -0.1949 0.1949 0.9808 -26.2754 26.5036)"
            fill="#666666"
            cx="121.5"
            cy="146.8"
            rx="0.5"
            ry="0.7"
          />
          <path
            id="path43"
            fill="#666666"
            d="M118.6,154c-0.9,0-1.9-0.2-2.7-0.6c-0.2-0.1-0.3-0.5-0.2-0.7c0.1-0.2,0.4-0.3,0.7-0.2
			c0,0,0,0,0,0c1.4,0.9,4,0.4,4.8,0.1c0.3-0.1,0.6,0.1,0.6,0.4s-0.1,0.6-0.4,0.6C120.6,153.8,119.6,154,118.6,154z"
          />
          <path
            id="path45"
            fill="#666666"
            d="M120.3,156.5c0,0-3.6,1.3-5.9,0.4c0,0,3,4.6,6.4,3.7L120.3,156.5z"
          />
          <path
            id="path47"
            fill="#666666"
            d="M119.9,161.2c-3.2,0-5.8-3.9-5.9-4.1c-0.1-0.2-0.1-0.6,0.2-0.7c0.1-0.1,0.3-0.1,0.5,0
			c2.1,0.9,5.5-0.3,5.5-0.4c0.1-0.1,0.3-0.1,0.4,0c0.1,0.1,0.2,0.2,0.2,0.4l0.5,4.1c0,0.3-0.1,0.5-0.4,0.6
			C120.6,161.2,120.2,161.2,119.9,161.2z M115.7,157.7c1,1.1,2.7,2.7,4.6,2.5l-0.4-3C118.5,157.6,117.1,157.8,115.7,157.7z"
          />
          <path
            id="path49"
            fill="#FFFFFF"
            d="M68,229.2c0,0-5-0.7-6.8-0.3c-1.8,0.4-8.3,21.5-5.5,20.7c2.8-0.8,9.7-11,9.7-11L68,229.2z"
          />
          <path
            id="path51"
            fill="#666666"
            d="M55.6,250.1c-0.2,0-0.5-0.1-0.6-0.3c-1.1-1.1,0.1-6.4,1.3-10.6c0.5-1.7,3-10.5,4.7-10.8
			c1.9-0.4,6.8,0.3,7,0.3c0.1,0,0.3,0.1,0.4,0.2c0.1,0.1,0.1,0.3,0.1,0.4l-2.5,9.3c0,0.1,0,0.1-0.1,0.2c-0.7,1-7,10.3-9.9,11.2
			C55.9,250.1,55.7,250.1,55.6,250.1z M62.8,229.3c-0.5,0-1,0-1.5,0.1c-1,0.6-4.3,10-5.4,16.1c-0.5,2.6-0.3,3.3-0.2,3.5
			c2.2-0.8,7.4-7.9,9.3-10.7l2.4-8.7C65.8,229.5,64.3,229.3,62.8,229.3L62.8,229.3z"
          />
          <path
            id="path53"
            fill="#FFFFFF"
            d="M202.2,177.4c0,0,12.4,4.7,13.8,4c1.4-0.6-2.2-16.8-2.2-16.8l4.8-1.1c0,0,6.1,21.6,3.4,25.3
			c-2.7,3.7-16.6,0.2-19.8-3.6C199.1,181.4,202.2,177.4,202.2,177.4z"
          />
          <path
            id="path55"
            fill="#666666"
            d="M217.2,190.8c-5.5,0-13-2.6-15.3-5.3c-3.4-4.1,0-8.4,0-8.4c0.1-0.2,0.4-0.2,0.6-0.2
			c5.8,2.2,12.2,4.2,13.3,4.1c0.5-1.1-0.8-9.1-2.4-16.2c-0.1-0.3,0.1-0.5,0.4-0.6c0,0,0,0,0,0l4.8-1.1c0.3-0.1,0.5,0.1,0.6,0.4
			c0.6,2.2,6.1,21.9,3.4,25.7c-0.8,1.1-2.4,1.7-4.8,1.8L217.2,190.8z M202.5,178c-1.5,2.1-1.4,4.9,0.2,6.9c2.2,2.6,9.9,5.1,15,5
			c2-0.1,3.4-0.5,4-1.3c2-2.8-1.6-18.1-3.4-24.4l-3.8,0.9c2.4,10.7,3,16.3,1.8,16.9C214.8,182.4,205.7,179.2,202.5,178L202.5,178z"
          />
          <path
            id="path57"
            fill="#8B5CF6"
            d="M194,102.7l65.8,35c-19.2,36.1-64.7,50-100.8,30.9s-50-64.7-30.9-100.8
			c19.2-36.1,64.7-50,100.8-30.9c12.2,6.5,22.3,16.2,29.3,28.1L194,102.7z"
          />
          <path
            id="path59"
            fill="#666666"
            d="M193.6,177.6c-32.9-0.1-61.8-21.6-71.3-53.1C110.2,85,132.5,43.1,172.1,31
			c33.2-10.1,69,3.8,86.6,33.7c0.1,0.2,0.1,0.5-0.2,0.7c0,0,0,0,0,0L195,102.7l65,34.5c0.2,0.1,0.3,0.4,0.2,0.7
			c-9.3,17.6-25.3,30.7-44.4,36.4C208.7,176.5,201.2,177.6,193.6,177.6z M194.3,28.7c-7.5,0-14.9,1.1-22,3.3
			c-39,12-60.8,53.4-48.8,92.4s53.4,60.8,92.4,48.8c18.4-5.7,33.9-18.4,43.1-35.4l-65.4-34.7c-0.2-0.1-0.3-0.3-0.3-0.4
			c0-0.2,0.1-0.4,0.3-0.5l63.8-37.5c-6.9-11.6-16.9-21.1-28.9-27.4C218.1,31.6,206.3,28.7,194.3,28.7L194.3,28.7z"
          />
          <path
            id="path61"
            fill="#FFFFFF"
            d="M150.3,160.7c-1.3,1.5-6.8,5.8-6.8,5.8s-9.7,18.6-14.2,18.6s-26.8-12.3-26.8-12.3
			s-2.5-2.4,0-6.6c2.5-4.3,23.8,8.6,23.8,8.6l12.4-12.4c0,0,1.1-3.3,1.3-4.6s0.1-4.1,1.4-3.7c1.3,0.4,0.5,4.5,0.5,4.5
			s4.4-5.4,5.9-3.7S151.6,159.2,150.3,160.7z"
          />
          <path
            id="path63"
            fill="#666666"
            d="M129.3,185.6c-4.6,0-26.1-11.9-27-12.4l-0.1-0.1c-0.1-0.1-2.8-2.7-0.1-7.3
			c0.3-0.5,0.8-0.9,1.4-1c4.9-1.2,20.1,7.7,22.7,9.2l12-12c0.2-0.6,1.1-3.3,1.2-4.4c0-0.3,0.1-0.6,0.1-0.9c0.1-1.2,0.2-2.5,0.9-3
			c0.3-0.2,0.7-0.3,1-0.2c1.1,0.3,1.2,2,1.1,3.4c1.2-1.2,3-2.9,4.4-2.9c0.5,0,0.9,0.2,1.2,0.5l0.1,0.2c1.6,1.9,3.9,4.5,2.4,6.3l0,0
			c-2.2,2.1-4.4,4-6.8,5.8C142.7,169.2,134,185.6,129.3,185.6z M102.9,172.4c7.7,4.2,23,12.2,26.4,12.2c3.5,0,11.1-13.2,13.7-18.3
			c0-0.1,0.1-0.1,0.1-0.2c0.1,0,5.5-4.3,6.7-5.8c1-1.1-1-3.4-2.4-4.9l-0.1-0.2c-0.1-0.1-0.3-0.2-0.4-0.2c-1.2,0-3.6,2.4-4.8,3.8
			c-0.2,0.2-0.4,0.2-0.6,0.1c-0.2-0.1-0.3-0.3-0.3-0.6c0.4-1.9,0.3-3.8-0.1-3.9c-0.1,0-0.1,0-0.1,0c-0.3,0.2-0.4,1.5-0.5,2.3
			c0,0.4-0.1,0.7-0.1,1c-0.2,1.3-1.3,4.5-1.3,4.6c0,0.1-0.1,0.1-0.1,0.2l-12.4,12.4c-0.2,0.2-0.4,0.2-0.6,0.1
			c-4.8-2.9-18.3-10.4-22.2-9.3c-0.3,0.1-0.6,0.2-0.8,0.5C100.9,170,102.6,172.1,102.9,172.4L102.9,172.4z M150.3,160.8L150.3,160.8
			z"
          />
          <path
            id="path65"
            fill="#E97E4F"
            d="M119,168.6l-6.5,11.2c0,0-11.7-4.6-12.8-8.8s1-11,3.7-10.3C106.1,161.4,119,168.6,119,168.6z"
          />
          <path
            id="path125"
            fill="#FFFFFF"
            d="M204.1,224.1l-1,2c-2.8,5.3-4.6,16.6-10.2,21.9c-2,1.9-21.3,15.3-21.3,15.3l-2.5-6.7
			c0,0,14.5-14.8,16-16.3c1.9-2,10.1-30.3,10.1-30.3L204.1,224.1z"
          />
          <path
            id="path127"
            fill="#666666"
            d="M171.6,263.7c-0.1,0-0.1,0-0.2,0c-0.2,0-0.3-0.2-0.3-0.3l-2.4-6.7c-0.1-0.2,0-0.4,0.1-0.5
			l16-16.3c1.3-1.4,6.7-18.8,10-30.1c0.1-0.2,0.2-0.3,0.4-0.4c0.2,0,0.4,0.1,0.5,0.2l8.9,14.2c0.1,0.2,0.1,0.3,0,0.5l-1,2
			c-1,2.2-1.9,4.5-2.6,6.9c-1.8,5.4-3.9,11.6-7.7,15.2c-2,1.9-20.5,14.8-21.3,15.3C171.8,263.7,171.7,263.7,171.6,263.7z
			 M169.8,256.6l2.1,5.8c3.1-2.2,18.8-13.2,20.6-14.9c3.6-3.4,5.7-9.4,7.4-14.7c0.7-2.4,1.6-4.7,2.7-7l0.9-1.8l-8.1-13
			c-1.7,5.7-8.1,27.6-9.9,29.4C184.2,241.9,171.6,254.7,169.8,256.6L169.8,256.6z"
          />
          <path
            id="path129"
            fill="#666666"
            d="M169.2,256.5c0,0-5.5,0.9-5.5,1.7s4.4,14.8,6.1,14.2c1.6-0.5,1.8-9.2,1.8-9.2L169.2,256.5z"
          />
          <path
            id="path131"
            fill="#666666"
            d="M169.7,272.9c-0.2,0-0.4-0.1-0.6-0.2c-2.1-1.4-5.9-13.8-5.9-14.5c0-0.4-0.1-1.3,5.9-2.3
			c0.2,0,0.5,0.1,0.6,0.3l2.4,6.7c0,0.1,0,0.1,0,0.2c-0.1,2.1-0.3,9-2.2,9.7C169.8,272.9,169.8,272.9,169.7,272.9z M164.2,258.3
			c0.3,1.7,4.2,13.1,5.5,13.6c0.6-0.2,1.3-4.2,1.4-8.6l-2.3-6.2C167.2,257.3,165.7,257.7,164.2,258.3L164.2,258.3z"
          />
          <path
            id="path133"
            fill="#FFFFFF"
            d="M210.8,219.8c0,0,0.3,0.8,0.7,2.2c1.8,5.7,6.5,23.1,6.6,25.4c0.2,2.8-9.1,23.3-9.1,23.3
			l-7-1.2c0,0,5.1-22,5.1-24.1c0-2.8-12.6-29.3-12.6-29.3L210.8,219.8z"
          />
          <path
            id="path135"
            fill="#666666"
            d="M209,271.2L209,271.2l-7.1-1.2c-0.1,0-0.3-0.1-0.3-0.2c-0.1-0.1-0.1-0.3-0.1-0.4
			c1.4-6.1,5.1-22.3,5.1-24c0-1.9-7.5-18.4-12.6-29.1c-0.1-0.2-0.1-0.4,0.1-0.5c0.1-0.2,0.3-0.2,0.5-0.2l16.3,3.8
			c0.2,0,0.3,0.2,0.4,0.3l0.7,2.2c1.7,5.5,6.5,23.1,6.6,25.5c0.2,2.9-8.1,21.4-9.1,23.5C209.3,271.1,209.2,271.2,209,271.2z
			 M202.6,269.1l6.1,1.1c3.7-8.2,9-20.7,8.8-22.7c-0.1-2.2-4.7-19.3-6.6-25.3l-0.6-1.9l-15-3.5c2.5,5.2,12.2,26,12.2,28.6
			C207.6,247.4,203.4,265.7,202.6,269.1z"
          />
          <path
            id="path137"
            fill="#FFFFFF"
            d="M185.2,159.8c-1.5,0.1-2.9,0.5-4.3,1.2c-2.3,1.1-4.5,2.9-5.1,5.5c-0.2,2.1,0.2,4.2,1.3,6
			c1.1,1.8,2,3.6,2.8,5.6c0.6,2,0.3,4.4-1.3,5.8c2.1-0.8,4.1-2,5.9-3.5c1-0.9,1.7-2.1,1.9-3.4c0-1.1-0.3-2.2-0.8-3.2
			c-0.8-1.5-1.2-3-1.5-4.7c-0.2-1.7,0.5-3.3,1.9-4.3c1.2-0.7,5.3-0.7,4.6-2.9C190.3,160.1,186.6,159.8,185.2,159.8z"
          />
          <path
            id="path139"
            fill="#666666"
            d="M178.6,184.3c-0.3,0-0.5-0.2-0.5-0.5c0-0.1,0.1-0.3,0.2-0.4c1.5-1.3,1.6-3.6,1.1-5.2
			c-0.5-1.4-1.1-2.8-1.9-4.1c-0.3-0.5-0.5-0.9-0.8-1.4c-1.3-2.5-1.8-4.5-1.4-6.3c0.6-3.1,3.6-5,5.3-5.8c1.4-0.7,2.9-1.1,4.5-1.2l0,0
			c0,0,5.5-0.2,6.2,2.4c0.2,0.5,0.1,1-0.1,1.5c-0.6,1-2,1.3-3.2,1.6c-0.5,0.1-1,0.2-1.5,0.5c-1.2,0.9-1.8,2.3-1.7,3.8
			c0.2,1.5,0.6,3,1.3,4.3l0.1,0.2c0.6,1.1,0.8,2.2,0.8,3.4c-0.2,1.5-0.9,2.8-2.1,3.8c-1.8,1.5-3.9,2.7-6.1,3.6
			C178.8,184.3,178.7,184.3,178.6,184.3z M185.2,160.3c-1.4,0.1-2.8,0.5-4.1,1.1c-1.5,0.7-4.2,2.4-4.8,5.1c-0.3,1.6,0.1,3.4,1.3,5.6
			c0.3,0.5,0.5,0.9,0.8,1.4c0.9,1.3,1.5,2.8,2,4.3c0.4,1.5,0.4,3.2-0.2,4.6c1.5-0.7,2.8-1.5,4.1-2.6c0.9-0.8,1.6-1.8,1.8-3
			c0-1-0.3-2-0.8-2.9l-0.1-0.2c-0.7-1.5-1.2-3-1.4-4.6c-0.2-1.9,0.6-3.7,2.2-4.7c0.6-0.3,1.2-0.5,1.8-0.6c1-0.2,2.2-0.5,2.6-1.1
			c0.1-0.2,0.1-0.5,0-0.7C190,160.7,186.8,160.3,185.2,160.3L185.2,160.3z"
          />
          <path
            id="path141"
            fill="#666666"
            d="M187,160.3c-0.5,0.9-0.7,1.8-0.5,2.8c0,0.7,0.3,1.3,0.7,1.8c0.5,0.6,1.3,0.9,2.1,0.8
			c0.4,0,0.7-0.1,1-0.4c0.2-0.2,0.3-0.5,0.3-0.8C191,162.5,189.5,156.3,187,160.3z"
          />
          <path
            id="path143"
            fill="#666666"
            d="M189,166.3c-0.9,0-1.7-0.4-2.3-1c-0.5-0.6-0.7-1.3-0.8-2c-0.2-1.1,0.1-2.2,0.6-3.1l0,0
			c1-1.6,2-1.7,2.5-1.4c1.6,0.6,2.3,4.5,2,6.1c-0.1,0.4-0.2,0.7-0.5,1c-0.3,0.3-0.8,0.5-1.3,0.6L189,166.3z M187.4,160.6
			c-0.4,0.8-0.6,1.6-0.5,2.5c0,0.6,0.2,1.1,0.6,1.5c0.4,0.5,1.1,0.7,1.7,0.7c0.2,0,0.4-0.1,0.6-0.2c0.1-0.2,0.2-0.4,0.2-0.6
			c0.3-1.4-0.4-4.5-1.3-4.9C188.2,159.4,187.6,160.2,187.4,160.6L187.4,160.6z"
          />
          <path
            id="path145"
            fill="#FFFFFF"
            d="M200.3,173.6c-0.8,0.8-1.9,1.2-3,1c-1.2-0.2-2.4-0.7-3.5-1.4c-4.1-2.9-6.2-7.8-5.4-12.7
			c0.8-4.9,5.7-9.7,10.9-7.9c1.8,0.6,3.2,2,3.8,3.8c0.7-0.2,1.5,0,2,0.5c1.3,1.3,1.3,2.8,0.6,4.4c-1.2,2.7-2.6,5.2-3.7,7.9
			C201.4,170.9,201.2,172.6,200.3,173.6z"
          />
          <path
            id="path147"
            fill="#666666"
            d="M197.9,175.1c-0.2,0-0.4,0-0.7,0c-1.3-0.2-2.6-0.7-3.7-1.5c-4.2-3-6.4-8.1-5.6-13.2
			c0.5-3.1,2.4-5.9,5.1-7.6c1.9-1.2,4.3-1.4,6.4-0.7c1.8,0.6,3.2,2,4,3.7c0.8-0.1,1.5,0.2,2.1,0.8c1.3,1.3,1.6,3.3,0.7,5
			c-0.5,1.1-1,2.2-1.6,3.2c-0.8,1.5-1.5,3-2.1,4.6c-0.2,0.5-0.4,1-0.5,1.5c-0.2,1-0.7,2-1.3,2.9l0,0
			C199.9,174.8,198.9,175.2,197.9,175.1z M197,152.8c-1.2,0-2.4,0.4-3.4,1c-2.4,1.5-4.1,4-4.6,6.9c-0.7,4.7,1.3,9.4,5.2,12.2
			c0.9,0.7,2.1,1.2,3.2,1.3c0.9,0.2,1.9-0.1,2.6-0.8l0,0c0.5-0.8,0.9-1.6,1.1-2.5c0.2-0.5,0.3-1.1,0.5-1.6c0.6-1.6,1.4-3.2,2.2-4.7
			c0.5-1,1.1-2.1,1.5-3.2c0.7-1.6,0.6-2.8-0.5-3.8c-0.4-0.4-0.9-0.6-1.5-0.4c-0.1,0.1-0.3,0.1-0.4,0c-0.1-0.1-0.2-0.2-0.3-0.3
			c-0.6-1.6-1.9-2.9-3.5-3.5C198.4,153,197.7,152.8,197,152.8L197,152.8z"
          />
          <path
            id="path149"
            fill="#FFFFFF"
            d="M204.1,162.4c0,0,3.2,2.7,2.9,3.5s-1.9,0.8-1.9,0.8"
          />
          <path
            id="path151"
            fill="#666666"
            d="M205.2,167.2L205.2,167.2c-0.3,0-0.5-0.2-0.5-0.5c0,0,0,0,0,0c0-0.3,0.2-0.5,0.5-0.5l0,0
			c0.5,0,1.3-0.2,1.4-0.4c-0.7-1.1-1.7-2.1-2.8-3c-0.2-0.2-0.3-0.5-0.1-0.7s0.5-0.3,0.7-0.1c0,0,0.1,0,0.1,0.1
			c1.6,1.3,3.4,3.1,3,4.1C207.2,167.2,205.5,167.2,205.2,167.2z"
          />
          <path
            id="path153"
            fill="#FFFFFF"
            d="M205.9,180.6c-3.5,0.3-9.6-3.3-9.7-3.4c-0.7-2.3-1.2-4.6-1.6-7c1.7-0.6,2.8-2.2,3-4
			c0.6-3.3,3.6-3.8,4.8-8c1.7,0.7,2,3.3,2.5,4.8c0.6,2.2,1.2,4.4,1.7,6.7c0.3,1.4-3.3,2.5-4.1,2.3L205.9,180.6z"
          />
          <path
            id="path155"
            fill="#666666"
            d="M205.5,181.1c-3.5,0-9.6-3.2-9.8-3.8c-0.7-2.3-1.2-4.7-1.6-7.1c0-0.3,0.1-0.5,0.4-0.6
			c1.5-0.6,2.5-2,2.6-3.5c0.3-1.5,1.1-2.8,2.2-3.8c1.2-1.2,2.1-2.7,2.6-4.3c0.1-0.3,0.4-0.4,0.6-0.3c0,0,0,0,0.1,0
			c1.7,0.7,2.2,2.7,2.5,4.3c0.1,0.3,0.1,0.6,0.2,0.8c0.6,2.2,1.2,4.5,1.7,6.7c0.1,0.6-0.1,1.2-0.6,1.5c-0.9,0.7-2,1.2-3.2,1.4
			c0.6,1.5,0.9,2.2,3,7.9c0.1,0.1,0.1,0.3,0,0.5c-0.1,0.1-0.2,0.2-0.4,0.2L205.5,181.1z M196.7,176.9c0.8,0.6,5.4,3,8.5,3.2
			l-3.1-7.9c-0.1-0.2,0-0.4,0.1-0.5c0.1-0.1,0.3-0.2,0.5-0.1c1.1,0,2.2-0.5,3.1-1.2c0.2-0.2,0.3-0.4,0.3-0.5
			c-0.5-2.2-1.1-4.5-1.7-6.7c-0.1-0.3-0.1-0.6-0.2-0.9c-0.2-1.2-0.7-2.4-1.5-3.3c-0.6,1.5-1.5,2.9-2.6,4.1c-1,0.9-1.7,2-1.9,3.3
			c-0.2,1.8-1.3,3.3-2.9,4.2C195.4,171.6,196.1,175,196.7,176.9z"
          />
          <path
            id="path157"
            fill="#FFFFFF"
            d="M206,168.1c-0.7,0.8-1.9,0.9-2.6,0.2c-0.1-0.1-0.1-0.1-0.2-0.2"
          />
          <path
            id="path159"
            fill="#666666"
            d="M204.6,169.2c-0.7,0-1.3-0.3-1.7-0.8c-0.2-0.2-0.2-0.5,0-0.7c0,0,0,0,0,0
			c0.2-0.2,0.5-0.2,0.7,0c0.2,0.3,0.6,0.5,1,0.5c0.4,0,0.8-0.2,1.1-0.5c0.2-0.2,0.5-0.2,0.7,0c0,0,0,0,0,0c0.2,0.2,0.2,0.5,0,0.7
			C205.9,168.9,205.3,169.2,204.6,169.2L204.6,169.2z"
          />
          <path
            id="path161"
            fill="#666666"
            d="M202.5,172c-1.1,0.2-2.2,0-3.1-0.6c0,0,1.1,3.4,4.3,3.5L202.5,172z"
          />
          <path
            id="path163"
            fill="#666666"
            d="M203.7,175.3L203.7,175.3c-3.5-0.2-4.7-3.7-4.7-3.8c-0.1-0.2,0-0.4,0.2-0.6
			c0.2-0.1,0.4-0.1,0.6,0c0.8,0.5,1.8,0.7,2.7,0.5c0.3-0.1,0.5,0.1,0.6,0.3l1.1,2.9c0.1,0.2,0,0.3-0.1,0.5
			C204,175.2,203.8,175.3,203.7,175.3z M200.5,172.4c0.6,0.9,1.4,1.5,2.4,1.8l-0.7-1.7C201.6,172.6,201.1,172.6,200.5,172.4
			L200.5,172.4z"
          />

          <ellipse
            id="ellipse165"
            transform="matrix(0.9775 -0.2108 0.2108 0.9775 -29.4962 46.4441)"
            fill="#666666"
            cx="203.1"
            cy="161.6"
            rx="0.3"
            ry="0.8"
          />
          <path
            id="path167"
            fill="#FFFFFF"
            d="M200,164.9c-0.2-0.5-0.6-1-1-1.3c-0.3-0.3-0.7-0.6-1.1-0.8c-0.4-0.2-0.9-0.2-1.3,0
			c-0.3,0.2-0.6,0.5-0.7,0.9c-0.1,0.4-0.1,0.8,0,1.2c0.4,1.7,1.7,3.1,3.4,3.6l-0.2-0.1"
          />
          <path
            id="path169"
            fill="#666666"
            d="M199.3,168.9h-0.1c-1.9-0.5-3.3-2-3.8-3.9c-0.1-0.5-0.1-0.9,0-1.4c0.1-0.5,0.4-1,0.9-1.3
			c0.5-0.3,1.2-0.3,1.7,0c0.4,0.2,0.9,0.5,1.2,0.9c0.5,0.4,1,0.9,1.2,1.6c0.1,0.3,0,0.5-0.3,0.6c0,0,0,0,0,0
			c-0.3,0.1-0.5-0.1-0.6-0.3c-0.2-0.4-0.5-0.8-0.9-1.1c-0.3-0.3-0.6-0.5-1-0.7c-0.3-0.1-0.6-0.1-0.9,0c-0.2,0.1-0.4,0.3-0.4,0.6
			c-0.1,0.3-0.1,0.6,0,1c0.4,1.4,1.4,2.5,2.7,3c0.1,0,0.2,0,0.3,0.1l0.2,0.1c0.2,0.1,0.3,0.5,0.2,0.7
			C199.6,168.9,199.5,168.9,199.3,168.9L199.3,168.9z"
          />
          <path
            id="path171"
            fill="#6193F7"
            d="M208.7,179.1c0,0-10.4-5.2-14-1.7c-3.7,3.5-3.5,14.9-3.7,34l22.3-1.5
			C213.3,209.8,213.7,181.9,208.7,179.1z"
          />
          <path
            id="path173"
            fill="#666666"
            d="M191,211.4l-10.6,28.4c0,0,27.3,9.3,39.8,7.2l-6.8-37.1L191,211.4z"
          />
          <path
            id="path175"
            fill="#666666"
            d="M215.7,247.8c-13.4,0-34.6-7.2-35.5-7.5c-0.1,0-0.2-0.1-0.3-0.3c-0.1-0.1-0.1-0.3,0-0.4
			l10.6-28.4c0.1-0.2,0.2-0.3,0.4-0.3l22.3-1.5c0.3,0,0.5,0.2,0.5,0.4l6.8,37.2c0,0.1,0,0.3-0.1,0.4c-0.1,0.1-0.2,0.2-0.3,0.2
			C218.7,247.8,217.2,247.9,215.7,247.8z M181,239.5c3.7,1.2,27,8.7,38.6,7.1l-6.6-36.2l-21.6,1.5L181,239.5z"
          />
          <path
            id="path177"
            fill="#666666"
            d="M202,269.5c0,0-2,5.2-1.2,5.6c0.7,0.4,15,3.5,15.3,1.8c0.3-1.7-7-6.2-7-6.2L202,269.5z"
          />
          <path
            id="path179"
            fill="#666666"
            d="M214.2,277.9c-4.2,0-13.2-2.1-13.7-2.4c-0.5-0.3-1.1-0.6,1-6.3c0.1-0.2,0.3-0.4,0.6-0.3
			l7,1.2c0.1,0,0.1,0,0.2,0.1c1.8,1.1,7.6,4.8,7.3,6.7c-0.1,0.3-0.3,0.5-0.5,0.7C215.4,277.9,214.8,277.9,214.2,277.9z M201,274.7
			c1.7,0.6,13.4,3,14.5,2c0.1-0.6-3-3.2-6.8-5.5l-6.5-1.2C201.7,271.5,201.3,273.1,201,274.7L201,274.7z M201,274.8L201,274.8z"
          />
          <path
            id="path181"
            fill="#FFFFFF"
            d="M202.8,179c3.4,1.2,15.3,9.3,16.2,8.1c0.9-1.2,5.5-13.6,5.5-14.5s-2.7-1.5-1.8-1.8l2.8-1
			c0,0-0.8-5.2,2.4-5.5c1.3-0.1,2.2,2.2,1.9,5.6c-0.1,1.9-2.5,21.5-5.4,25.1c-2.9,3.6-7.6,2.7-16.4-2.1c-8.7-4.9-12.9-8.8-11.7-11.6
			S198.8,177.6,202.8,179z"
          />
          <path
            id="path183"
            fill="#666666"
            d="M219.8,197.7c-3.2,0-7.2-1.8-11.9-4.4c-9.3-5.2-13.2-9.1-11.9-12.2c1.4-3.3,3-3.9,6.9-2.5
			l0,0c2.4,1.1,4.8,2.3,7,3.7c3.1,1.8,7.8,4.6,8.8,4.5c1-1.4,5.2-13,5.3-14.1c-0.3-0.3-0.6-0.5-1-0.6c-0.6-0.3-1-0.6-1-1
			c0-0.3,0.2-0.5,0.5-0.6l2.4-0.9c-0.1-0.9-0.2-3.2,0.9-4.5c0.5-0.6,1.2-1,2-1.1c0.5,0,1,0.2,1.3,0.5c0.9,0.9,1.4,3,1.2,5.6
			c0,0.2-2.3,21.4-5.5,25.3C223.6,196.9,221.8,197.7,219.8,197.7z M199.8,178.9c-1.5,0-2.1,0.9-2.8,2.6s0.7,4.9,11.4,10.9
			c8.8,4.9,13.1,5.5,15.7,2.3c2.7-3.2,5.1-21.9,5.3-24.8c0.2-2.7-0.4-4.3-0.9-4.8c-0.1-0.2-0.3-0.2-0.5-0.2c-0.5,0-1,0.3-1.3,0.7
			c-1,1.3-0.6,4.2-0.6,4.2c0,0.2-0.1,0.5-0.3,0.5l-2.2,0.8l0,0c0.7,0.4,1.5,0.8,1.5,1.5c0,0.9-4.5,13.6-5.6,14.8
			c-0.8,0.9-2.9-0.2-10-4.3c-2.2-1.4-4.5-2.6-6.8-3.7C201.7,179.1,200.7,178.9,199.8,178.9L199.8,178.9z"
          />
        </g>
        <g>
          <path
            fill="#FFFFFF"
            d="M150.1,89.3V63.6h3.4v10.6h13.4V63.6h3.4v25.8h-3.4V77.2h-13.4v12.1H150.1z"
          />
        </g>
        <g>
          <path
            fill="#FFFFFF"
            d="M219.2,47.5h3.4v14.9c0,2.6-0.3,4.6-0.9,6.2s-1.6,2.8-3.2,3.7s-3.5,1.4-6,1.4c-2.4,0-4.4-0.4-5.9-1.2
			s-2.6-2-3.3-3.6c-0.7-1.6-1-3.7-1-6.5V47.5h3.4v14.9c0,2.2,0.2,3.9,0.6,4.9s1.1,1.9,2.1,2.5s2.3,0.9,3.7,0.9
			c2.5,0,4.3-0.6,5.4-1.7s1.6-3.3,1.6-6.6V47.5z"
          />
        </g>
        <g>
          <path
            fill="#FFFFFF"
            d="M149.9,142.4v-25.8h5.1l6.1,18.2c0.6,1.7,1,3,1.2,3.8c0.3-0.9,0.8-2.3,1.4-4.1l6.2-17.9h4.6v25.8h-3.3
			v-21.6l-7.5,21.6h-3.1l-7.5-21.9v21.9H149.9z"
          />
        </g>
        <g>
          <path
            fill="#FFFFFF"
            d="M200,150.1l9.9-25.8h3.7l10.5,25.8h-3.9l-3-7.8h-10.8l-2.8,7.8H200z M207.4,139.5h8.7l-2.7-7.1
			c-0.8-2.2-1.4-3.9-1.8-5.3c-0.3,1.7-0.8,3.3-1.4,4.9L207.4,139.5z"
          />
        </g>
      </g>


      <g id="oneguy">
        <path
          id="path67"
          fill="#FFFFFF"
          d="M289.3,152.4l-10.1-2.7l-3-20l-7.8-3.2c0,0,1,26.3,4.5,28.6c6.9,4.5,18.9,6.1,18.9,6.1
		L289.3,152.4z"
        />
        <path
          id="path69"
          fill="#666666"
          d="M291.9,161.8L291.9,161.8c-0.6-0.1-12.3-1.7-19.2-6.2c-3.6-2.4-4.7-26.3-4.8-29
		c0-0.2,0.1-0.3,0.2-0.4c0.1-0.1,0.3-0.1,0.5-0.1l7.8,3.2c0.2,0.1,0.3,0.2,0.3,0.4l3,19.7l9.7,2.6c0.2,0,0.3,0.2,0.4,0.3l2.5,8.9
		c0,0.2,0,0.3-0.1,0.5C292.2,161.7,292,161.8,291.9,161.8z M269,127.3c0.5,10.5,1.9,25.9,4.3,27.4c5.7,3.8,15.1,5.5,17.9,5.9
		l-2.2-7.8l-9.8-2.6c-0.2,0-0.3-0.2-0.4-0.4l-3-19.7L269,127.3z"
        />
        <path
          id="path71"
          fill="#FFFFFF"
          d="M332.1,256.7c0.2,0.5,2,3.6,1.6,4.2c-0.4,0.6-6.3,4.3-4.5,4.9c1.7,0.6,11.7-0.8,11.7-0.8
		l-6-15.8L332.1,256.7z"
        />
        <path
          id="path73"
          fill="#666666"
          d="M330.8,266.5c-0.6,0-1.2,0-1.7-0.2c-0.3-0.1-0.6-0.4-0.7-0.7c-0.2-0.9,1-1.9,3.6-3.9
		c0.4-0.3,0.9-0.7,1.3-1c-0.3-1-0.7-1.9-1.2-2.8c-0.2-0.3-0.3-0.6-0.5-1c0-0.1,0-0.2,0-0.3l2.8-7.5c0.1-0.2,0.3-0.3,0.5-0.3l0,0
		c0.2,0,0.4,0.1,0.5,0.3l6.1,15.8c0.1,0.3,0,0.6-0.3,0.7c0,0-0.1,0-0.1,0C340.1,265.7,334.1,266.5,330.8,266.5z M329.4,265.4
		c1.4,0.3,6.9-0.2,10.8-0.7l-5.3-14l-2.2,6.1l0.3,0.7c1.1,2.2,1.5,3.3,1.2,3.8c-0.4,0.5-1,0.9-1.5,1.3
		C331.4,263.4,330.4,264.3,329.4,265.4z"
        />
        <path
          id="path75"
          fill="#FFFFFF"
          d="M303.9,253.7c0,0,3.5,10,2.9,10.2s-15.2,3.6-14.6,2.7c0.6-0.9,7.5-4.5,7.5-4.1
		c0.1,0.4-0.9-4.8-0.9-4.8L303.9,253.7z"
        />
        <path
          id="path77"
          fill="#666666"
          d="M292.7,267.1c-0.4,0-0.8-0.1-0.8-0.2c-0.1-0.2-0.1-0.5,0-0.7c0.5-0.7,5.5-3.6,7.4-4.2
		c-0.2-0.7-0.4-2-0.9-4.3c0-0.2,0-0.4,0.2-0.5l5.1-4.1c0.1-0.1,0.3-0.1,0.5-0.1c0.2,0,0.3,0.2,0.3,0.3c3.6,10.4,3.1,10.6,2.6,10.8
		C306.9,264.4,295.9,267.1,292.7,267.1z M299.6,263c-2.1,0.9-4.1,1.9-6,3.1c3.1-0.4,11-2.2,12.7-2.7c-0.7-3-1.6-6-2.7-9l-4.3,3.4
		c0.2,1,0.8,4.1,0.9,4.5l0,0c0.1,0.3-0.1,0.6-0.4,0.6C299.7,263.1,299.7,263.1,299.6,263L299.6,263z M299.3,262.6L299.3,262.6
		c-0.1,0.1,0,0.2,0.1,0.3C299.4,262.8,299.4,262.7,299.3,262.6z"
        />
        <path
          id="path79"
          fill="#666666"
          d="M298.4,195c0,0-10.2,21.2-10.4,27.9s8.6,34.9,8.6,34.9l8.9-1.5c0,0-6.6-28.2-5.6-31.1
		c1-2.9,8.7-21.9,8.7-21.9s3,16.2,5.2,22.2c2.1,6,15.7,31.6,15.7,31.6l9.3-1.8c0,0-12.4-28.7-12.8-33.6c-0.5-5-2.9-31.5-2.9-31.5
		L298.4,195z"
        />
        <path
          id="path81"
          fill="#666666"
          d="M296.7,258.2c-0.2,0-0.4-0.1-0.5-0.4c-0.4-1.2-8.8-28.3-8.7-35s10-27.2,10.4-28.1
		c0.1-0.1,0.2-0.2,0.4-0.3l24.7-4.8c0.1,0,0.3,0,0.4,0.1c0.1,0.1,0.2,0.2,0.2,0.4l2.9,31.5c0.4,4.8,12.7,33.2,12.8,33.5
		c0.1,0.1,0.1,0.3,0,0.4c-0.1,0.1-0.2,0.2-0.3,0.3l-9.4,1.8c-0.2,0-0.4-0.1-0.5-0.3c-0.5-1-13.6-25.7-15.7-31.7
		c-1.7-4.9-4.1-16.2-4.9-20.6c-1.9,4.6-7.2,17.9-8,20.3c-0.7,2,3,19.6,5.7,30.8c0,0.1,0,0.3-0.1,0.4c-0.1,0.1-0.2,0.2-0.3,0.2
		L296.7,258.2L296.7,258.2z M298.7,195.4c-1.1,2.3-10.1,21.3-10.2,27.4s7.4,30.8,8.5,34.3l7.9-1.3c-1.1-4.6-6.5-28-5.5-30.9
		c1-2.9,8.4-21.1,8.7-21.9c0.1-0.2,0.3-0.3,0.5-0.3c0.2,0,0.4,0.2,0.4,0.4c0,0.2,3,16.2,5.1,22.1c2,5.5,13.9,28.2,15.5,31.2l8.4-1.6
		c-1.8-4.2-12.2-28.6-12.6-33.2s-2.5-27-2.8-30.9L298.7,195.4z"
        />
        <polygon
          id="polygon83"
          fill="#63FC35"
          points="304,157.3 280.2,148.3 280.9,160.9 299.8,169.2 	"
        />
        <path
          id="path85"
          fill="#63FC35"
          d="M297.3,159.3c0.7-1,15.4-4.3,19.9-0.7c4.4,3.7,7.4,29.7,8.1,37.8l-28.9,2.1
		C296.3,198.5,293.3,164.6,297.3,159.3z"
        />
        <path
          id="path87"
          fill="#666666"
          d="M296.1,196.1c-0.3,0-0.5-0.2-0.5-0.5c-0.1-1-1.8-23.6-0.5-29.2c0.1-0.3,0.3-0.4,0.6-0.4
		c0,0,0,0,0,0c0.3,0.1,0.4,0.3,0.4,0.6c0,0,0,0,0,0c-1.2,5.5,0.5,28.7,0.6,28.9C296.6,195.9,296.4,196.1,296.1,196.1
		C296.1,196.1,296.1,196.1,296.1,196.1L296.1,196.1z"
        />
        <path
          id="path89"
          fill="#FFFFFF"
          d="M311.9,154.3c1.4,0.5,3,0.6,4.5,0.2c0.7-0.1,1.3-0.5,1.8-1c0.5-0.5,0.5-1.3,0.2-1.9
		c0.8,0,1.5-0.4,1.9-1c0.4-0.6,0.7-1.3,0.7-2.1c0.2-1-0.1-2-0.8-2.6c0.7-0.4,1.5-0.9,1.6-1.8c0-0.4,0-0.8-0.2-1.2
		c-0.3-0.8-0.6-1.5-1-2.3c-0.2-0.4-0.5-0.8-1-0.8c0.5-1.5,0.1-3.2-1-4.3c-0.5-0.6-1.3-0.9-2-1c-0.8,0-1.6,0.1-2.4,0.3
		c-0.9-1-2.2-1.5-3.6-1.4c-1,0.2-1.9,1-2.2,2c-0.9-0.1-1.9,0-2.7,0.4c-0.9,0.3-1.6,1-1.9,1.9c-0.3,0.9,0.1,1.9,0.9,2.4
		c-1.1,0.2-1.8,1.3-1.7,2.4c0.2,1.1,1,2,2,2.3c0.2,0,0.3,0.1,0.4,0.2c0.1,0.1,0.2,0.3,0.2,0.5c0.2,0.6,0.7,0.8,1,1.3
		c0.3,0.7,0.6,1.5,0.9,2.2c0.3,0.7,0.6,1.4,1,2.1c0.3,0.8,0.7,1.6,1.2,2.3c0.5,0.6,1,0.5,1.7,0.8L311.9,154.3z"
        />
        <path
          id="path91"
          fill="#666666"
          d="M314.6,155.3c-1,0-1.9-0.2-2.9-0.4l0,0l-0.5-0.2c-0.2-0.1-0.3-0.1-0.4-0.1
		c-0.6-0.1-1.1-0.4-1.5-0.8c-0.4-0.5-0.7-1.1-0.9-1.6c-0.1-0.3-0.2-0.5-0.3-0.8c-0.3-0.6-0.7-1.4-1-2.1c-0.1-0.2-0.2-0.5-0.3-0.8
		c-0.1-0.5-0.3-0.9-0.6-1.4c-0.1-0.2-0.2-0.3-0.4-0.4c-0.3-0.3-0.6-0.6-0.7-1v-0.1c0-0.1,0-0.1-0.1-0.2H305
		c-1.3-0.3-2.3-1.4-2.5-2.7c-0.1-1,0.4-2,1.3-2.6c-0.5-0.7-0.7-1.5-0.5-2.4c0.3-1,1.1-1.9,2.2-2.3c0.8-0.3,1.7-0.4,2.6-0.4
		c0.4-1,1.3-1.8,2.4-2c1.4-0.1,2.8,0.4,3.8,1.4c0.8-0.1,1.6-0.2,2.3-0.2c0.9,0.1,1.7,0.5,2.3,1.2c1.1,1.1,1.6,2.8,1.3,4.4
		c0.3,0.2,0.6,0.5,0.8,0.9c0.4,0.7,0.7,1.5,1,2.3c0.2,0.5,0.2,1,0.2,1.5c-0.2,0.7-0.7,1.4-1.3,1.8c0.5,0.8,0.7,1.7,0.5,2.6
		c-0.1,0.8-0.4,1.6-0.8,2.3c-0.4,0.5-1,0.9-1.6,1.1c0.1,0.6-0.1,1.3-0.5,1.8c-0.5,0.6-1.3,1-2,1.1
		C315.9,155.2,315.3,155.3,314.6,155.3z M312.1,153.8c1.4,0.4,2.8,0.5,4.2,0.2c0.6-0.1,1.1-0.4,1.5-0.8c0.3-0.3,0.4-0.8,0.2-1.2
		c-0.1-0.2-0.1-0.4,0-0.5c0.1-0.2,0.3-0.3,0.5-0.3c0.6,0,1.1-0.3,1.5-0.8c0.4-0.5,0.6-1.2,0.6-1.8c0-0.4,0.1-1.6-0.6-2.2
		c-0.1-0.1-0.2-0.3-0.2-0.4c0-0.2,0.1-0.3,0.2-0.4c0.6-0.4,1.3-0.8,1.4-1.4c0-0.3,0-0.7-0.2-1c-0.2-0.7-0.6-1.5-0.9-2.2
		c-0.2-0.4-0.4-0.5-0.5-0.5c-0.2,0-0.3-0.1-0.4-0.2c-0.1-0.1-0.1-0.3-0.1-0.5c0.4-1.3,0.1-2.8-0.9-3.8c-0.5-0.5-1.1-0.8-1.8-0.9
		c-0.2,0-1.8,0.2-2.1,0.2c-0.2,0.1-0.5,0.1-0.6-0.1l0,0c-0.8-0.9-1.9-1.3-3-1.2c-0.9,0.2-1.5,0.8-1.8,1.7c-0.1,0.2-0.3,0.4-0.5,0.4
		c-0.9-0.1-1.7,0-2.5,0.3c-0.7,0.3-1.3,0.9-1.6,1.6c-0.2,0.7,0.1,1.4,0.7,1.8c0.2,0.1,0.3,0.4,0.2,0.7c-0.1,0.1-0.2,0.2-0.4,0.3
		c-0.8,0.2-1.4,1-1.3,1.8c0.1,0.9,0.8,1.6,1.7,1.8c0.2,0,0.4,0.1,0.6,0.3c0.2,0.2,0.3,0.4,0.3,0.6c0.1,0.3,0.2,0.5,0.5,0.6
		c0.2,0.2,0.4,0.4,0.6,0.6c0.3,0.5,0.5,1,0.6,1.6c0.1,0.3,0.2,0.5,0.2,0.7c0.3,0.7,0.6,1.4,0.9,2c0.1,0.3,0.3,0.6,0.4,0.9
		c0.2,0.5,0.4,1,0.7,1.4c0.2,0.3,0.6,0.4,0.9,0.5l0.5,0.1L312.1,153.8L312.1,153.8z"
        />
        <path
          id="path93"
          fill="#FFFFFF"
          d="M305.2,145.5c0,0-2.9,2.4-2.7,3.2c0.2,0.8,1.7,0.8,1.7,0.8"
        />
        <path
          id="path95"
          fill="#666666"
          d="M304.2,149.9c-0.2,0-1.9,0-2.2-1.1c-0.2-0.7,0.7-2,2.9-3.7c0.2-0.2,0.5-0.2,0.7,0.1
		c0,0,0,0,0,0c0.2,0.2,0.2,0.5-0.1,0.7c-1,0.7-1.9,1.7-2.5,2.7c0.1,0.2,0.7,0.3,1.2,0.3c0.3,0,0.5,0.2,0.5,0.5
		C304.7,149.7,304.5,149.9,304.2,149.9L304.2,149.9z"
        />
        <path
          id="path97"
          fill="#FFFFFF"
          d="M307.8,139c-0.2,0-0.4,0.2-0.6,0.4c-0.5,0.6-0.9,1.3-1.2,2c-0.6,1.5-1.1,3-1.5,4.5
		c-0.6,2-1.1,4.1-1.6,6.1c-0.3,1.3,3,2.3,3.7,2.1l-2,4.9c0,0,1.5,0.9,4.5,0.5c3-0.4,3.3-1.1,3.3-1.1l1.5-5.9c-1.5-0.6-2.5-2-2.7-3.6
		c0-0.5,0-1.1-0.1-1.6c-0.2-0.5-0.7-0.8-0.8-1.4c-0.1-0.6,0.1-1.2,0.6-1.6c0.1-0.1,0.2-0.2,0.2-0.3c0-0.1-0.1-0.1-0.1-0.2
		c-0.6-0.6-0.6-1.7,0-2.3c-0.8-0.3-1.1-1.3-1.3-2.1c0.1,0.3-1.3-0.3-1.3-0.3C308,139,307.9,139,307.8,139z"
        />
        <path
          id="path99"
          fill="#666666"
          d="M307.4,160.2c-1.1,0.1-2.2-0.2-3.2-0.7c-0.2-0.1-0.3-0.4-0.2-0.6l1.7-4.2
		c-1.1-0.2-2.1-0.6-2.9-1.3c-0.4-0.3-0.6-0.9-0.5-1.4c0.5-2,1-4.1,1.6-6.1l0.1-0.4c0.4-1.4,0.8-2.8,1.4-4.2c0.3-0.8,0.8-1.6,1.3-2.2
		c0.2-0.3,0.5-0.4,0.9-0.5l0,0c0.2,0,0.3,0,0.5,0l0.1,0.1c0.3,0.1,0.6,0.2,0.9,0.3h0.1c0.3-0.1,0.5,0.1,0.6,0.4c0,0,0,0,0,0l0,0
		c0.2,0.7,0.4,1.6,1,1.7c0.2,0.1,0.3,0.2,0.3,0.4c0,0.2,0,0.4-0.2,0.5c-0.4,0.4-0.4,1.1,0,1.6c0.1,0.1,0.3,0.3,0.3,0.4
		c0.1,0.3-0.1,0.6-0.3,0.8c-0.3,0.3-0.5,0.8-0.4,1.2c0.1,0.2,0.2,0.4,0.3,0.6c0.2,0.2,0.3,0.4,0.4,0.7c0.1,0.4,0.2,0.8,0.1,1.1
		c0,0.2,0,0.4,0,0.6c0.1,1.4,1,2.7,2.4,3.2c0.3,0.1,0.4,0.3,0.3,0.6l-1.5,5.9c-0.2,0.5-0.9,1-3.7,1.4
		C308.6,160.2,308,160.3,307.4,160.2z M305.2,158.9c1.2,0.4,2.5,0.5,3.8,0.2c1,0,2-0.3,2.9-0.8l1.4-5.4c-1.4-0.8-2.4-2.2-2.6-3.8
		c0-0.2-0.1-0.5-0.1-0.7c0-0.3,0-0.5-0.1-0.8c-0.1-0.2-0.2-0.3-0.3-0.4c-0.3-0.3-0.5-0.7-0.5-1.1c-0.1-0.7,0.1-1.4,0.6-2
		c-0.3-0.4-0.5-0.9-0.5-1.4c0-0.4,0.1-0.7,0.2-1c-0.5-0.5-0.8-1.1-1-1.7c-0.4-0.1-0.7-0.2-1.1-0.4c0,0-0.1,0-0.1,0l0,0
		c-0.1,0-0.1,0.1-0.3,0.2c-0.5,0.6-0.9,1.2-1.1,1.9c-0.5,1.3-1,2.7-1.3,4.1l-0.1,0.4c-0.6,2-1.1,4.1-1.6,6.1c0,0.1,0.1,0.3,0.2,0.4
		c0.8,0.6,1.8,1,2.8,1.1c0.2,0,0.4,0,0.5,0.2c0.1,0.1,0.2,0.3,0.1,0.5L305.2,158.9z M307.8,139L307.8,139z"
        />
        <path
          id="path101"
          fill="#FFFFFF"
          d="M310.1,147.5c0.2-0.5,0.6-0.9,1-1.2c0.3-0.3,0.6-0.5,1-0.7c0.4-0.2,0.8-0.2,1.2,0
		c0.3,0.2,0.5,0.5,0.6,0.9c0.1,0.4,0,0.7-0.1,1.1c-0.4,1.6-1.6,2.8-3.1,3.2l0.2-0.1"
        />
        <path
          id="path103"
          fill="#666666"
          d="M310.7,151.3c-0.2,0-0.4-0.1-0.5-0.3c-0.1-0.2,0-0.5,0.2-0.6l0.2-0.1c0.1-0.1,0.2-0.1,0.3-0.1
		c1.2-0.5,2.1-1.5,2.5-2.8c0.1-0.3,0.1-0.6,0-0.9c0-0.2-0.2-0.4-0.4-0.5c-0.2-0.1-0.5-0.1-0.7,0c-0.3,0.2-0.6,0.4-0.9,0.6
		c-0.4,0.3-0.7,0.6-0.8,1c-0.1,0.3-0.4,0.4-0.7,0.3c-0.2-0.1-0.4-0.4-0.3-0.6c0.2-0.6,0.6-1.1,1.1-1.4c0.3-0.3,0.7-0.6,1.1-0.8
		c0.5-0.2,1.1-0.2,1.6,0c0.4,0.3,0.8,0.7,0.9,1.2c0.1,0.4,0.1,0.9-0.1,1.3C313.8,149.4,312.5,150.8,310.7,151.3L310.7,151.3z"
        />
        <path
          id="path105"
          fill="#666666"
          d="M306.6,154.2c1.1,0,2.1-0.4,3-1c0,0-1,3-3.9,3.1L306.6,154.2z"
        />
        <path
          id="path107"
          fill="#666666"
          d="M305.6,156.9c-0.2,0-0.3-0.1-0.4-0.2c-0.1-0.1-0.1-0.3-0.1-0.5l0.9-2.2
		c0.1-0.2,0.3-0.3,0.5-0.3c1,0,1.9-0.3,2.7-0.8c0.2-0.1,0.4-0.1,0.6,0c0.2,0.1,0.3,0.4,0.2,0.6C310,153.6,308.9,156.8,305.6,156.9
		L305.6,156.9z M306.9,154.7l-0.4,1c0.8-0.2,1.4-0.7,1.9-1.3C307.9,154.6,307.4,154.7,306.9,154.7L306.9,154.7z"
        />

        <ellipse
          id="ellipse109"
          transform="matrix(0.2499 -0.9683 0.9683 0.2499 90.7176 405.6097)"
          fill="#666666"
          cx="307.1"
          cy="144.3"
          rx="0.8"
          ry="0.3"
        />
        <path
          id="path111"
          fill="#666666"
          d="M305,151.5c-0.6,0-1.2-0.2-1.6-0.6c-0.2-0.2-0.2-0.5,0-0.7c0.2-0.2,0.5-0.2,0.7,0
		c0,0,0,0,0,0.1c0.1,0.1,0.8,0.7,2.2-0.2c0.2-0.2,0.5-0.1,0.7,0.1c0.2,0.2,0.1,0.5-0.1,0.7c0,0,0,0,0,0
		C306.3,151.3,305.7,151.5,305,151.5z"
        />
        <path
          id="path113"
          fill="#8B5CF6"
          d="M221,98.1l68.8-28.6c9.9,24,6.7,51.4-8.5,72.4l-0.2,0.2L221,98.1"
        />
        <path
          fill="#666666"
          d="M220.8,97.7L289.6,69c0.1-0.1,0.3-0.1,0.4,0c0.1,0.1,0.2,0.2,0.3,0.3c9.9,24.1,6.7,51.7-8.5,72.9l0,0
		l-0.2,0.2c-0.1,0.1-0.2,0.2-0.4,0.2c-0.1,0-0.2,0-0.3-0.1l-60.2-44"
        />
        <path fill="#666666" d="M281.4,141.9L281.4,141.9z" />
        <path
          fill="#8B5CF6"
          d="M222,98.2l59.1,43.1c14.8-20.7,18-47.6,8.5-71.2L222,98.2"
        />
        <path
          id="path117"
          fill="#FFFFFF"
          d="M316.1,161.8c0,0-22.5-8.7-23.4-11.1c-0.8-1.8-0.6-4.3-0.9-6.2c-0.4-3-0.3-6-1-9
		c-0.1-0.3-0.1-0.7-0.1-1c0.1-0.3,0.2-0.5,0.4-0.8c0.4-0.5,2.6-4.4,0.7-4.3c-0.2,0-0.4,0.1-0.5,0.3c-0.2,0.3-1,1-1,1
		c-0.1-1.3-0.3-2.5-0.6-3.7c-0.4-1.1-1.5-1.7-2.7-1.4c-1.1,0.2-2,0.9-2.4,1.9c-0.1,0.4-0.1,0.8-0.1,1.2c0.3,2.8,0.4,5.6,0.2,8.3
		c-0.3,2.4-0.5,4.9-0.6,7.3c0,2.5,0.1,5,0.3,7.5c0.2,1.6,0.4,3.7,1.4,5c2.8,3.4,22.1,14.8,27.4,12.3
		C318.7,166.8,316.1,161.8,316.1,161.8z"
        />
        <path
          id="path119"
          fill="#666666"
          d="M311.6,170.1c-3.7,0-9.5-2.6-13-4.4c-5.7-2.9-11.4-6.6-12.9-8.5c-1.1-1.3-1.3-3.3-1.5-4.9V152
		c-0.3-2.5-0.4-5-0.4-7.5c0-2.2,0.2-4.3,0.5-6.5l0.1-0.9c0.2-1.9,0.1-3.9-0.1-5.8c-0.1-0.8-0.1-1.6-0.2-2.4c0-0.5,0-0.9,0.1-1.3
		c0.5-1.2,1.5-2,2.8-2.2c1.4-0.4,2.8,0.4,3.2,1.7c0.3,0.9,0.5,1.9,0.5,2.9l0.3-0.3c0.2-0.3,0.5-0.4,0.8-0.5c0.5-0.1,0.9,0.1,1.1,0.5
		c0.7,1.3-1.4,4.6-1.4,4.6c-0.1,0.2-0.3,0.4-0.3,0.6c0,0.3,0,0.5,0.1,0.8c0.3,1.8,0.5,3.5,0.6,5.3c0.1,1.2,0.2,2.4,0.3,3.7
		c0.1,0.6,0.1,1.3,0.2,2c0,1.4,0.2,2.7,0.6,4c0.6,1.5,13.9,7.2,23.2,10.8c0.1,0,0.2,0.1,0.3,0.2c0.7,1.5,0.9,3.2,0.4,4.7
		c-0.6,1.5-1.8,2.8-3.3,3.4C313.1,170,312.4,170.1,311.6,170.1z M287.8,126.1c-0.2,0-0.3,0-0.5,0.1c-0.9,0.1-1.6,0.7-2,1.5
		c-0.1,0.3-0.1,0.7-0.1,1c0,0.8,0.1,1.6,0.1,2.4c0.2,2,0.2,4,0.1,6l-0.1,0.9c-0.3,2.1-0.4,4.2-0.5,6.4c0,2.5,0.1,4.9,0.3,7.4v0.4
		c0.2,1.5,0.4,3.3,1.3,4.4c2.9,3.5,21.9,14.4,26.8,12.2c1.3-0.5,2.3-1.5,2.8-2.8c0.4-1.2,0.3-2.6-0.2-3.8
		c-4.2-1.6-22.5-8.9-23.5-11.3c-0.5-1.4-0.7-2.9-0.7-4.3c0-0.7-0.1-1.4-0.2-2c-0.2-1.2-0.3-2.5-0.3-3.7c-0.1-1.7-0.3-3.5-0.6-5.2
		c-0.1-0.4-0.1-0.8-0.1-1.3c0.1-0.3,0.2-0.6,0.4-0.8c0.7-1,1.7-3.3,1.4-3.6l0,0c-0.1,0-0.1,0-0.2,0c-0.1,0-0.1,0.1-0.2,0.2l-1,1
		c-0.1,0.1-0.3,0.2-0.5,0.1c-0.2-0.1-0.3-0.2-0.3-0.4c-0.1-1.2-0.3-2.4-0.6-3.6C289.1,126.6,288.5,126.1,287.8,126.1z"
        />
        <path
          id="path121"
          fill="#63FC35"
          d="M315.7,172.9l-18.3-6.4l1.3-15.2c0,0,17.1,6.4,19.7,9.8C320.9,164.6,322.7,173.6,315.7,172.9z
		"
        />
        <path
          id="path123"
          fill="#666666"
          d="M316.6,173.6c-4.1,0-15.3-5.4-16.7-6.1c-0.2-0.1-0.4-0.4-0.2-0.7c0,0,0,0,0,0
		c0.1-0.3,0.4-0.4,0.7-0.2c0,0,0,0,0,0c5.7,2.8,14.8,6.6,16.8,5.9c1.5-0.6,2.3-2.1,1.9-3.6c-0.1-0.3,0.1-0.6,0.4-0.6
		c0.3-0.1,0.6,0.1,0.6,0.4c0.5,2-0.7,4.1-2.6,4.8C317.2,173.5,316.9,173.6,316.6,173.6z"
        />
        <g>
          <path
            fill="#FFFFFF"
            d="M261.2,114.5V88.7h3.5l13.5,20.2V88.7h3.3v25.8h-3.5l-13.5-20.2v20.2H261.2z"
          />
        </g>
      </g>
    </svg>